<ttFont>
<head>
    <!-- Most of this table will be recalculated by the compiler -->
    <tableVersion value="1.0"/>
    <fontRevision value="1.20099"/>
    <checkSumAdjustment value="0x923f0347"/>
    <magicNumber value="0x5f0f3cf5"/>
    <flags value="00000000 00000011"/>
    <unitsPerEm value="1000"/>
    <created value="Thu Jun 19 21:40:11 2014"/>
    <modified value="Thu Jun 19 19:40:10 2014"/>
    <xMin value="-561"/>
    <yMin value="-646"/>
    <xMax value="2068"/>
    <yMax value="982"/>
    <macStyle value="00000000 00000010"/>
    <lowestRecPPEM value="3"/>
    <fontDirectionHint value="2"/>
    <indexToLocFormat value="0"/>
    <glyphDataFormat value="0"/>
  </head>
          <CharString index="0">
            41 -18 38 -21 26 vhcurveto
            return
          </CharString>
          <CharString index="1">
            -104 callgsubr
            endchar
          </CharString>
          <CharString index="2">
            -26 71 -20 49 vhcurveto
            540 return
          </CharString>
          <CharString index="3">
            520 105 180 110 hstemhm
            40 108 -60 120 hintmask 11010000
            -49 625 rmoveto
            -86 callsubr
            -53 callsubr
            hintmask 11100000
            -123 hlineto
            -18 21 -17 30 34 vvcurveto
            65 return
          </CharString>
          <CharString index="4">
            36 -15 -46 57 -82 hhcurveto
            -80 -86 -51 -110 -136 132 -113 84 -58 hvcurveto
            -99 callgsubr
            return
          </CharString>
          <CharString index="5">
            -16 -62 -51 -20 -17 50 -61 21 213 callsubr
            hvcurveto
            return
          </CharString>
          <CharString index="6">
            rmoveto
            -107 callsubr
            return
          </CharString>
          <CharString index="7">
            -79 63 -68 59 88 vvcurveto
            55 27 38 52 41 33 -25 -26 15 vhcurveto
            -7 -22 -5 -22 -3 -19 13 -11 54 -28 32 -4 rrcurveto
            return
          </CharString>
          <CharString index="8">
            -3 -62 hvcurveto
            -74 -4 -45 -23 -47 31 callgsubr
            58 5 55 rrcurveto
            12 16 1 18 hhcurveto
            return
          </CharString>
          <CharString index="9">
            hlineto
            -41 18 -38 21 -26 vhcurveto
            354 -96 callgsubr
            return
          </CharString>
          <CharString index="10">
            -98 callgsubr
            rrcurveto
            return
          </CharString>
          <CharString index="11">
            -36 callsubr
            -102 -88 -58 -113 -96 83 -95 118 -72 callsubr
            return
          </CharString>
          <CharString index="12">
            hvcurveto
            110 28 28 72 70 vvcurveto
            36 -13 33 -21 27 vhcurveto
            return
          </CharString>
          <CharString index="13">
            -34 45 -75 50 -42 vhcurveto
            6 -5 12 -4 13 11 12 3 10 hflex1
            16 10 19 return
          </CharString>
          <CharString index="14">
            hhcurveto
            -18 -18 1 3 -17 82 callgsubr
            23 vvcurveto
            31 -9 56 -12 45 vhcurveto
            return
          </CharString>
          <CharString index="15">
            rmoveto
            -10 21 -38 40 -34 7 -167 -137 rcurveline
            6 -14 12 -15 24 -12 rrcurveto
            return
          </CharString>
          <CharString index="16">
            hlineto
            50 -4 55 10 -1 hvcurveto
            return
          </CharString>
          <CharString index="17">
            rmoveto
            74 253 69 -253 rlineto
            193 -210 rmoveto
            -188 614 -40 3 -21 1 -40 -4 rlinecurve
            -192 -616 -37 -92 callgsubr
            201 100 callgsubr
            42 143 rlineto
            180 hlineto
            40 -145 rlineto
            -1 52 callsubr
            234 -91 callsubr
            endchar
          </CharString>
          <CharString index="18">
            -88 callgsubr
            hhcurveto
            return
          </CharString>
          <CharString index="19">
            hmoveto
            -107 callsubr
            return
          </CharString>
          <CharString index="20">
            rmoveto
            138 -86 16 9 12 15 9 14 rlinecurve
            -135 126 -32 8 -12 -1 -32 -7 rlinecurve
            -139 -126 10 -19 8 -9 17 -10 rlinecurve
            return
          </CharString>
          <CharString index="21">
            -41 18 -38 21 -26 -68 callsubr
            return
          </CharString>
          <CharString index="22">
            -102 callgsubr
            -43 callgsubr
            return
          </CharString>
          <CharString index="23">
            -34 -6 -36 -10 -31 -15 rrcurveto
            -38 13 -30 30 50 vvcurveto
            55 36 29 28 20 16 -10 -24 -22 -13 -13 -26 -18 vhcurveto
            3 -10 11 -20 9 -8 rrcurveto
            return
          </CharString>
          <CharString index="24">
            -78 callsubr
            2 -6 return
          </CharString>
          <CharString index="25">
            -66 -11 -40 -51 -64 vvcurveto
            -76 55 -49 75 -32 -77 callgsubr
            return
          </CharString>
          <CharString index="26">
            -40 callsubr
            41 39 -2 -4 40 -6 callgsubr
          </CharString>
          <CharString index="27">
            41 97 43 32 hhcurveto
            15 12 -9 -18 -41 -64 -65 -91 -12 -29 2 6 -18 hvcurveto
            25 -12 -36 51 -25 hhcurveto
            -28 -44 267 callsubr
            return
          </CharString>
          <CharString index="28">
            -50 -65 callgsubr
            return
          </CharString>
          <CharString index="29">
            -14 callsubr
            -28 callgsubr
            return
          </CharString>
          <CharString index="30">
            209 callsubr
            -63 -38 -20 -67 -109 173 -198 233 -14 hvcurveto
            64 callgsubr
            return
          </CharString>
          <CharString index="31">
            103 callsubr
            -187 -69 rmoveto
            304 57 hlineto
            123 2 -58 95 -133 hhcurveto
            -147 -95 -99 -191 -158 83 -87 144 119 75 60 40 14 -9 22 -11 8 hvcurveto
            -18 -23 -45 -37 -73 hhcurveto
            -104 -29 58 102 hvcurveto
            endchar
          </CharString>
          <CharString index="32">
            -80 callsubr
            185 callsubr
            2 hlineto
            157 76 90 72 hvcurveto
            return
          </CharString>
          <CharString index="33" raw="1">
            481daa8f a594a09b 0b 
          </CharString>
          <CharString index="34">
            44 -74 74 -97 68 -67 19 6 39 29 11 21 return
          </CharString>
          <CharString index="35">
            50 38 12 17 31 hvcurveto
            -35 callsubr
            return
          </CharString>
          <CharString index="36">
            rmoveto
            -9 14 -12 15 -16 9 -138 -86 rcurveline
            -140 86 -17 -10 -8 -9 -10 -19 rlinecurve
            139 -126 32 -7 12 -1 32 8 rlinecurve
            return
          </CharString>
          <CharString index="37">
            rmoveto
            -204 -121 -136 -229 -220 108 -130 184 206 121 136 229 220 -109 130 -185 hvcurveto
            -16 -80 rmoveto
            118 62 -97 -185 -177 -63 -94 -121 -2 hvcurveto
            -115 2 -60 97 183 vvcurveto
            296 callsubr
            vhcurveto
            return
          </CharString>
          <CharString index="38">
            -324 vlineto
            -22 -29 -27 -12 -40 hhcurveto
            -62 -35 29 85 hvcurveto
            315 -151 vlineto
            -49 6 -61 -10 -1 hvcurveto
            73 -239 hlineto
            -153 93 -57 92 65 43 29 32 37 vhcurveto
            return
          </CharString>
          <CharString index="39">
            vhcurveto
            98 -63 callsubr
            return
          </CharString>
          <CharString index="40">
            rmoveto
            449 vlineto
            -66 callgsubr
            return
          </CharString>
          <CharString index="41">
            364 callsubr
            -44 -33 -34 -39 vhcurveto
            -44 callsubr
            -246 262 callgsubr
            221 hlineto
            50 -4 55 10 -1 hvcurveto
            return
          </CharString>
          <CharString index="42">
            -6 -7 -2 -14 -14 -45 callsubr
            return
          </CharString>
          <CharString index="43">
            -107 callgsubr
            147 hlineto
            -77 callsubr
            return
          </CharString>
          <CharString index="44">
            -494 hlineto
            -105 callsubr
            return
          </CharString>
          <CharString index="45">
            -61 callsubr
            hhcurveto
            return
          </CharString>
          <CharString index="46">
            -23 callsubr
            -19 41 56 -10 52 return
          </CharString>
          <CharString index="47">
            -22 -1 -13 0 -45 38 -4 rlinecurve
            39 -4 rlineto
            return
          </CharString>
          <CharString index="48">
            -46 -37 -47 -32 -42 hhcurveto
            -50 -13 52 149 hvcurveto
            return
          </CharString>
          <CharString index="49">
            hlineto
            -5 -14 -3 -16 -19 vvcurveto
            -73 63 -54 80 -27 vhcurveto
            9 6 14 22 3 11 rrcurveto
            return
          </CharString>
          <CharString index="50">
            vvcurveto
            -110 78 -73 116 29 40 10 16 33 vhcurveto
            29 -47 26 -55 18 -42 142 callgsubr
            -16 28 -54 55 -41 34 rrcurveto
            25 24 15 29 29 vvcurveto
            32 -18 43 -38 -36 -63 -38 -39 -13 7 -16 9 -13 vhcurveto
            -9 -19 -20 -2 -19 hhcurveto
            -56 -45 18 50 return
          </CharString>
          <CharString index="51">
            -29 42 -64 95 76 vvcurveto
            54 36 21 111 vhcurveto
            68 -282 hlineto
            -106 callsubr
          </CharString>
          <CharString index="52">
            -21 callgsubr
            47 -5 -96 -249 rlineto
            hintmask 11010000
            -101 250 11 2 48 8 -5 49 1 10 rlinecurve
            -207 53 callgsubr
            55 -6 rlineto
            5 hlineto
            177 -392 rlineto
            hintmask 10101000
            -65 -20 -51 -125 -43 hhcurveto
            -28 1 34 19 4 hvcurveto
            2 -5 -13 0 -4 hhcurveto
            -37 -26 -29 -35 -45 35 -31 59 110 48 140 127 55 hvcurveto
            -1 hlineto
            166 403 4 1 49 9 -6 48 1 10 rlinecurve
            endchar
          </CharString>
          <CharString index="53">
            48 100 243 callgsubr
            -9 -19 -51 -71 406 callsubr
            113 387 callsubr
            return
          </CharString>
          <CharString index="54">
            137 -79 callgsubr
            return
          </CharString>
          <CharString index="55">
            -48 -33 543 callsubr
            return
          </CharString>
          <CharString index="56">
            -21 callgsubr
            40 -5 -80 -232 -78 254 -81 -1 -92 -266 -71 246 17 2 48 6 -5 51 1 10 rlinecurve
            -198 hlineto
            -35 -9 -36 -29 1 hvcurveto
            46 -6 141 -434 rlineto
            67 hlineto
            100 265 89 -265 rlineto
            67 hlineto
            170 436 15 2 rlineto
            22 2 14 17 48 vvcurveto
            endchar
          </CharString>
          <CharString index="57">
            -136 -469 -136 471 rlineto
            -83 hlineto
            -152 -471 -120 471 28 2 48 4 -5 53 1 10 rlinecurve
            -224 hlineto
            -49 -65 callgsubr
            58 -6 182 -614 rlineto
            110 hlineto
            134 400 129 -400 rlineto
            106 hlineto
            192 616 18 2 49 5 -10 52 1 10 rlinecurve
            endchar
          </CharString>
          <CharString index="58">
            213 -3 9 -118 rlineto
            10 -1 54 -4 44 vvcurveto
            151 -438 vlineto
            54 callsubr
            rlineto
            return
          </CharString>
          <CharString index="59">
            458 callgsubr
            38 40 9 17 34 vhcurveto
            68 callsubr
            return
          </CharString>
          <CharString index="60">
            rmoveto
            2 -40 -51 1 -45 37 callsubr
            204 vlineto
            return
          </CharString>
          <CharString index="61">
            -40 -41 -59 -32 -48 hhcurveto
            -42 -42 25 66 return
          </CharString>
          <CharString index="62">
            vvcurveto
            -47 90 -107 53 16 17 4 7 9 vhcurveto
            return
          </CharString>
          <CharString index="63">
            -3 hlineto
            -7 61 -181 -60 callsubr
            -357 -18 callgsubr
            303 vlineto
            29 34 29 17 56 hhcurveto
            54 35 -24 -81 hvcurveto
            return
          </CharString>
          <CharString index="64">
            -72 -109 -48 23 -36 24 -25 hvcurveto
            endchar
          </CharString>
          <CharString index="65">
            18 -22 57 -68 -58 vvcurveto
            -43 -27 -16 -36 return
          </CharString>
          <CharString index="66">
            67 callsubr
            -65 -10 233 callsubr
            hintmask 11111010
            -48 callgsubr
            return
          </CharString>
          <CharString index="67">
            -17 callsubr
            0 callsubr
            return
          </CharString>
          <CharString index="68">
            hhcurveto
            -86 -92 -48 -115 -96 81 -96 123 return
          </CharString>
          <CharString index="69">
            100 -77 78 -104 -82 -56 -47 -63 -30 13 -65 100 -38 vhcurveto
            128 callgsubr
            -11 callgsubr
            return
          </CharString>
          <CharString index="70">
            367 callgsubr
            -394 vlineto
            -312 465 rlineto
            -131 hlineto
            54 callsubr
            -49 -3 6 -54 -1 -10 rlinecurve
            175 260 callgsubr
            435 vlineto
            339 -507 rlineto
            30 28 5 9 19 hvcurveto
            603 48 callsubr
          </CharString>
          <CharString index="71">
            19 -36 -45 14 -49 hhcurveto
            return
          </CharString>
          <CharString index="72">
            -96 vlineto
            -26 71 -20 49 vhcurveto
            return
          </CharString>
          <CharString index="73">
            -14 callsubr
            -10 -1 -9 -3 -6 vhcurveto
            6 -59 -46 3 -72 hhcurveto
            -28 -44 -2 -3 -62 hvcurveto
            -74 -4 -45 -23 -42 31 callgsubr
            63 5 55 rrcurveto
            12 16 1 18 hhcurveto
            51 hlineto
            5 -31 16 -32 12 -22 -73 callsubr
            rrcurveto
            return
          </CharString>
          <CharString index="74">
            -107 callgsubr
            47 -266 hlineto
            -34 -28 -45 -28 -72 hhcurveto
            -54 -48 11 46 -37 hvcurveto
            119 29 70 82 1 97 rrcurveto
            return
          </CharString>
          <CharString index="75">
            -52 callsubr
            -47 return
          </CharString>
          <CharString index="76">
            479 685 -87 callgsubr
            return
          </CharString>
          <CharString index="77">
            -41 callgsubr
            rrcurveto
            return
          </CharString>
          <CharString index="78">
            21 53 rlineto
            36 -25 -57 24 -66 -39 callsubr
            return
          </CharString>
          <CharString index="79">
            rmoveto
            40 201 callsubr
            -40 -38 -32 -32 -38 -39 32 -31 38 hvcurveto
            -190 hmoveto
            39 201 callsubr
            -39 -39 -32 -32 -38 -39 32 -31 39 hvcurveto
            return
          </CharString>
          <CharString index="80">
            -136 132 -113 84 -58 return
          </CharString>
          <CharString index="81">
            rmoveto
            -14 -27 -29 -9 -25 hhcurveto
            -42 -42 25 66 30 9 25 16 19 hvcurveto
            207 -93 rmoveto
            -5 -5 -5 -4 -6 -5 -135 140 rcurveline
            135 callgsubr
            370 callsubr
            256 -14 callgsubr
            return
          </CharString>
          <CharString index="82">
            -225 53 callgsubr
            return
          </CharString>
          <CharString index="83">
            hhcurveto
            -70 -43 -41 -50 -28 hvcurveto
            return
          </CharString>
          <CharString index="84">
            -10 callsubr
            rrcurveto
            return
          </CharString>
          <CharString index="85">
            vvcurveto
            -42 33 -37 62 34 34 13 20 14 vhcurveto
            2 11 -3 26 -6 4 rrcurveto
            -9 -11 -21 -12 -20 hhcurveto
            -23 -18 16 33 return
          </CharString>
          <CharString index="86">
            360 700 -70 callsubr
            return
          </CharString>
          <CharString index="87">
            -41 35 -11 27 28 vvcurveto
            44 26 25 31 45 23 -30 -66 return
          </CharString>
          <CharString index="88">
            17 -34 -42 13 -51 -39 callsubr
            41 32 10 15 28 hvcurveto
            return
          </CharString>
          <CharString index="89">
            16 3 35 203 callgsubr
            return
          </CharString>
          <CharString index="90">
            20 16 18 54 45 vvcurveto
            return
          </CharString>
          <CharString index="91">
            rmoveto
            -48 -35 -48 -35 -39 hhcurveto
            -58 -10 45 136 hvcurveto
            return
          </CharString>
          <CharString index="92">
            105 hstemhm
            24 107 213 120 return
          </CharString>
          <CharString index="93">
            24 -44 11 -43 -28 vvcurveto
            return
          </CharString>
          <CharString index="94">
            -50 -63 -24 -18 -28 hvcurveto
            9 -33 33 -62 7 -8 rrcurveto
            12 17 53 34 45 hhcurveto
            49 49 -58 -65 37 hvcurveto
            45 -51 -59 32 -44 hhcurveto
            -52 -59 -30 -21 -21 hvcurveto
            10 -28 36 -56 7 -6 rrcurveto
            14 14 55 36 49 hhcurveto
            return
          </CharString>
          <CharString index="95">
            -110 30 -137 48 99 vvcurveto
            62 55 34 65 42 38 -11 -20 -20 -33 -31 -36 -13 vhcurveto
            7 -26 35 -57 15 -9 rrcurveto
            63 18 30 59 52 vvcurveto
            64 -50 86 -133 return
          </CharString>
          <CharString index="96">
            6 -23 46 -58 20 -12 rlinecurve
            158 121 126 -106 12 7 37 37 9 17 rlinecurve
            return
          </CharString>
          <CharString index="97">
            159 callgsubr
            26 9 21 16 return
          </CharString>
          <CharString index="98">
            -86 callsubr
            vlineto
            endchar
          </CharString>
          <CharString index="99">
            14 -26 25 11 61 46 11 23 -25 39 -43 41 -46 40 rrcurveto
            28 29 19 38 42 vvcurveto
            44 -21 39 -45 -46 -67 -40 -53 -16 6 -23 9 -14 vhcurveto
            -13 -24 -31 -1 return
          </CharString>
          <CharString index="100">
            86 39 120 87 116 161 callgsubr
            return
          </CharString>
          <CharString index="101">
            -88 3 -29 2 15 vvcurveto
            6 5 14 9 16 vhcurveto
            -3 15 17 -2 18 hhcurveto
            113 77 75 114 6 hvcurveto
            2 46 -9 36 -19 28 30 -1 35 0 13 7 16 12 -5 55 -11 14 rrcurveto
            endchar
          </CharString>
          <CharString index="102">
            -24 callgsubr
            hvcurveto
            257 168 290 callgsubr
            69 callsubr
            return
          </CharString>
          <CharString index="103">
            60 9 -15 -19 -25 -16 -5 -19 -20 -17 6 9 -11 hvcurveto
            -6 -4 -8 -23 2 -15 rrcurveto
            -15 14 24 -13 36 hhcurveto
            62 39 38 47 36 -23 38 -61 hvcurveto
            return
          </CharString>
          <CharString index="104">
            155 callsubr
            hintmask 1111000100000000
            6 callgsubr
            hintmask 1110101010000000
            252 callgsubr
            hintmask 1110011010000000
            252 callsubr
            hintmask 1111000100000000
            90 callsubr
            hintmask 1110011010000000
            -6 callsubr
          </CharString>
          <CharString index="105">
            161 -541 hlineto
            -39 130 callgsubr
            -82 6 rlineto
            539 162 vlineto
            10 -110 rlineto
            22 42 -1 45 hvcurveto
            141 vlineto
            endchar
          </CharString>
          <CharString index="106">
            -107 callgsubr
            64 -163 hlineto
            -141 86 -94 118 115 68 85 123 vhcurveto
            190 return
          </CharString>
          <CharString index="107">
            2 29 26 0 26 hhcurveto
            return
          </CharString>
          <CharString index="108">
            hhcurveto
            -52 -40 23 45 61 76 24 57 hvcurveto
            373 callsubr
            -27 vvcurveto
            return
          </CharString>
          <CharString index="109">
            -25 -24 218 callgsubr
            return
          </CharString>
          <CharString index="110">
            rmoveto
            -287 -15 375 564 rlineto
            23 -14 17 -13 9 vhcurveto
            -465 -221 hlineto
            35 -7 35 7 7 55 9 83 rcurveline
            242 8 -379 -557 3 -21 8 -15 8 -17 rlinecurve
            523 224 hlineto
            -38 7 -30 -7 -7 -53 rrcurveto
            endchar
          </CharString>
          <CharString index="111">
            114 callgsubr
            -36 18 -10 30 25 vvcurveto
            45 26 18 25 34 15 -27 -35 vhcurveto
            -140 vlineto
            -82 -4 -20 -23 -29 vvcurveto
            -64 88 -67 28 -11 vhcurveto
            407 callgsubr
            return
          </CharString>
          <CharString index="112">
            -225 hlineto
            64 callsubr
            return
          </CharString>
          <CharString index="113">
            -2 6 8 -1 9 hhcurveto
            15 16 2 6 9 hvcurveto
            return
          </CharString>
          <CharString index="114">
            -107 callgsubr
            345 -51 -125 hlineto
            hintmask 0101110100000000
            294 callsubr
            hintmask 1011101010000000
            54 callgsubr
            29 -40 32 -32 33 -25 rrcurveto
            -105 109 callsubr
            129 vlineto
            hintmask 1001101100000000
            -6 21 22 -2 22 hhcurveto
            13 13 1 2 13 hvcurveto
            -300 239 callgsubr
            385 vlineto
            hintmask 1011101010000000
            35 24 22 34 35 342 callgsubr
            hintmask 0101110100000000
            30 callgsubr
            return
          </CharString>
          <CharString index="115">
            -68 callsubr
            vlineto
            endchar
          </CharString>
          <CharString index="116">
            -55 250 callsubr
            154 72.5 hintmask 11001000
            545 625 rmoveto
            -104 hlineto
            -41 25 -101 callgsubr
            97 -97 callgsubr
            hintmask 10111100
            -320 9 rmoveto
            -81 -74 -39 -84 -82 66 -40 71 -17 hvcurveto
            4 callsubr
            57 50 0 -2 46 hvcurveto
            -310 -184 -62 callgsubr
            rlinecurve
            320 220 -5 138 rlineto
            6 -50 -135 2 -39 hhcurveto
            101 vlineto
            257 callsubr
            vhcurveto
            return
          </CharString>
          <CharString index="117">
            59 callsubr
            hintmask 1001111011000000
            -75 callsubr
            hintmask 1010111011000000
            return
          </CharString>
          <CharString index="118">
            hlineto
            -9 callsubr
          </CharString>
          <CharString index="119">
            257 -14 callgsubr
            return
          </CharString>
          <CharString index="120">
            -6 -7 203 callsubr
            return
          </CharString>
          <CharString index="121">
            rmoveto
            -14 -25 -27 -9 -26 hhcurveto
            -52 -35 31 62 29 9 25 16 18 hvcurveto
            return
          </CharString>
          <CharString index="122">
            rmoveto
            -66 hlineto
            -75 -59 -7 -16 -43 hvcurveto
            hintmask 10111111
            19 -27 -33 11 -34 379 callsubr
            143 462 vlineto
            -771 hmoveto
            189 -214 hlineto
            -59 callsubr
            1029 91 -101 callsubr
            -1237 33 callgsubr
            36 56 57 63 58 7 rrcurveto
            -13 -20 -6 -25 -30 196 callgsubr
            hintmask 11011111
            -56 callsubr
          </CharString>
          <CharString index="123">
            rmoveto
            21 callgsubr
            279 callgsubr
            -889 136 callsubr
            365 -108 hlineto
            -19 callsubr
            -86 -105 callgsubr
          </CharString>
          <CharString index="124">
            164 callgsubr
            -75 50 -74 78 -29 hvcurveto
            -110 295 callgsubr
            237 163 rlineto
            311 callgsubr
            return
          </CharString>
          <CharString index="125">
            rmoveto
            644 vlineto
            -198 -22 -1 -13 0 -45 38 -4 rlinecurve
            39 -4 rlineto
            -558 -80 callgsubr
            return
          </CharString>
          <CharString index="126">
            183 callsubr
            297 callgsubr
            hvcurveto
            192 callsubr
            64 -89 88 -62 95 -15 -183 -107 332 callgsubr
            101 8 79 66 90 vvcurveto
            268 callsubr
            vhcurveto
            hintmask 01011110
            -46 callgsubr
            endchar
          </CharString>
          <CharString index="127">
            hhcurveto
            -54 -44 -22 -20 -22 hvcurveto
            7 -20 31 -60 14 -15 rrcurveto
            18 28 33 17 44 88 callsubr
            return
          </CharString>
          <CharString index="128">
            hlineto
            26 -46 12 -44 -30 vvcurveto
            190 callgsubr
            -19 5 -24 hhcurveto
            -45 -40 -18 -51 -38 21 -44 14 -25 hvcurveto
            36 -63 85 -112 65 -63 19 6 39 29 11 21 201 callgsubr
            return
          </CharString>
          <CharString index="129">
            88 -38 63 -31 -67 vvcurveto
            -60 -52 -47 -90 -88 -39 44 97 vhcurveto
            -75 -31 -39 -48 -93 114 -37 102 164 99 94 133 return
          </CharString>
          <CharString index="130">
            rmoveto
            39 21 -26 -32 -50 -42 -28 -48 -26 hvcurveto
            -23 21 -14 32 32 vvcurveto
            57 36 20 31 vhcurveto
            return
          </CharString>
          <CharString index="131">
            -50 callgsubr
            472 callsubr
            349 -97 callgsubr
            -823 17 callsubr
            hintmask 10111100
            -93 callgsubr
          </CharString>
          <CharString index="132">
            hhcurveto
            -53 -85 -23 -7 -15 hvcurveto
            3 -24 27 -72 4 -6 rrcurveto
            5 12 return
          </CharString>
          <CharString index="133">
            158 callsubr
            -163 hlineto
            -48 -16 132 callgsubr
            -6 -7 -1 -13 -14 vvcurveto
            -47 71 -92 47 16 17 4 7 9 vhcurveto
            20 16 19 46 45 vvcurveto
            1 20 21 0 20 hhcurveto
            return
          </CharString>
          <CharString index="134">
            61 -24 47 -17 -45 vvcurveto
            -41 -40 -14 -43 -72 -36 40 62 -8 vhcurveto
            -42 -42 -24 -50 -75 93 -29 82 130 79 74 96 93 -74 34 -81 33 hvcurveto
            return
          </CharString>
          <CharString index="135">
            -131 520 105 -63 73 hstemhm
            70 403 callgsubr
            hintmask 10110000
            471 625 rmoveto
            -74 -107 callgsubr
            74 -97 callgsubr
            hintmask 01110000
            -263 10 rmoveto
            -82 -56 -47 -63 -30 13 -65 100 -38 hvcurveto
            128 callgsubr
            -11 callgsubr
            7 -92 67 -102 102 -35 -132 -78 rcurveline
            -62 callgsubr
            378 248 rcurveline
            -57 140 rlineto
            439 callsubr
            45 -37 hvcurveto
            119 30 71 82 97 vvcurveto
            420 callsubr
            return
          </CharString>
          <CharString index="136">
            -333 -105 callgsubr
          </CharString>
          <CharString index="137">
            41 32 -52 72 hhcurveto
            66 34 44 87 11 hvcurveto
            -32 9 rlineto
            -29 -7 -23 -22 -35 -55 -25 59 -62 hhcurveto
            return
          </CharString>
          <CharString index="138">
            520 105 175 101 -72 89 hstemhm
            -407 91 381 76 -53 120 hintmask 10101000
            184 625 rmoveto
            -22 27 -21 42 57 vvcurveto
            46 22 32 194 callsubr
            -76 hvcurveto
            hintmask 11010100
            63 -67 -94 52 -122 182 callgsubr
            136 -79 callgsubr
            return
          </CharString>
          <CharString index="139">
            189 callsubr
            0 callgsubr
            hvcurveto
            12 callsubr
            return
          </CharString>
          <CharString index="140">
            hhcurveto
            -52 -20 0 -99 callsubr
            98 hlineto
            return
          </CharString>
          <CharString index="141">
            377 callgsubr
            -27 -22 468 callgsubr
            71 194 callgsubr
            return
          </CharString>
          <CharString index="142">
            99 callsubr
            451 callgsubr
            return
          </CharString>
          <CharString index="143">
            -28 -37 -66 -33 -80 hhcurveto
            -150 -58 95 178 152 66 115 127 74 34 -47 -82 hvcurveto
            60 40 29 55 70 -76 61 -120 return
          </CharString>
          <CharString index="144">
            -17 callgsubr
            216 return
          </CharString>
          <CharString index="145">
            258 rmoveto
            -39 -38 -53 -29 -55 hhcurveto
            -58 -19 32 31 63 80 17 55 8 hvcurveto
            -7 30 -20 39 -19 19 rrcurveto
            hintmask 11010000
            -13 -20 -43 -19 -22 hhcurveto
            -26 -36 20 50 20 6 19 10 14 hvcurveto
            265 hlineto
            -43 callgsubr
            -691 -107 callgsubr
            53 hlineto
            -7 -14 -3 -16 -17 vvcurveto
            -57 37 -49 58 -25 vhcurveto
            hintmask 10110000
            -28 -26 -11 -30 -34 vvcurveto
            -67 43 -46 60 -23 vhcurveto
            -108 -48 7 -28 23 -44 21 -20 rlinecurve
            288 160 rlineto
            -110 -105 callgsubr
          </CharString>
          <CharString index="146">
            rmoveto
            -58 -39 -37 -56 -53 37 -36 56 57 39 37 56 1 hvcurveto
            53 1 -37 36 -57 hhcurveto
            -2 -49 rmoveto
            26 17 -16 -26 -26 -17 -17 -26 -26 -16 17 26 26 16 16 26 hvcurveto
            endchar
          </CharString>
          <CharString index="147">
            86 callgsubr
            -892 202 callsubr
            33 21 -19 -41 -75 -72 -73 -45 -28 hvcurveto
            16 -28 29 -37 37 -20 rrcurveto
            52 36 74 83 107 vvcurveto
            107 -75 76 -100 532 callsubr
            vhcurveto
            endchar
          </CharString>
          <CharString index="148">
            1 -8 -9 1 -10 -24 callsubr
            return
          </CharString>
          <CharString index="149">
            -31 -35 -41 -23 -52 hhcurveto
            -110 -33 83 103 111 38 66 70 65 24 -58 -49 1 hvcurveto
            34 -4 53 18 62 vvcurveto
            71 -69 42 -94 return
          </CharString>
          <CharString index="150">
            83 -55 166 -100 -28 vvcurveto
            -19 -36 -20 -35 -19 vhcurveto
            16 -27 33 -40 28 -18 rrcurveto
            42 44 37 41 76 vvcurveto
            104 -114 45 -112 71 vhcurveto
            -76 48 -13 21 64 vvcurveto
            endchar
          </CharString>
          <CharString index="151">
            18 -19 -25 12 -28 hhcurveto
            hintmask 1100111100000000
            139 callsubr
            237 -79 callgsubr
            -660 383 callsubr
            hintmask 1001111010000000
            -80 callsubr
            return
          </CharString>
          <CharString index="152">
            -92 callsubr
            28 110 -92 callsubr
            return
          </CharString>
          <CharString index="153">
            -57 callgsubr
            -75 -32 -27 return
          </CharString>
          <CharString index="154">
            46 callgsubr
            22 17 -9 -18 8 hvcurveto
            59 40 rlineto
            47 -30 -50 27 -63 200 callsubr
            endchar
          </CharString>
          <CharString index="155">
            vlineto
            -64 callgsubr
            endchar
          </CharString>
          <CharString index="156">
            73 callsubr
            -115 88 -98 136 -14 hvcurveto
            -177 -104 -11 callsubr
            -163 121 89 11 73 44 46 51 rlinecurve
            266 callgsubr
          </CharString>
          <CharString index="157">
            114 34 -47 -96 hvcurveto
            60 40 29 55 70 -76 61 -160 -224 -109 -154 -211 -219 99 -131 198 hvcurveto
            return
          </CharString>
          <CharString index="158">
            -3 callgsubr
            -42 callsubr
            return
          </CharString>
          <CharString index="159">
            hlineto
            -74 callgsubr
            return
          </CharString>
          <CharString index="160">
            291 vlineto
            56 38 41 25 37 hhcurveto
            14 11 -3 -4 9 hvcurveto
            -4 -9 105 callgsubr
            return
          </CharString>
          <CharString index="161">
            64 callsubr
            226 callsubr
            return
          </CharString>
          <CharString index="162">
            -107 callgsubr
            84 return
          </CharString>
          <CharString index="163">
            -223 190 callsubr
            416 callgsubr
            426 492 callgsubr
            -420 rmoveto
            -9 -22 -23 -6 -22 hhcurveto
            -52 -32 26 53 26 9 22 15 17 hvcurveto
            252 -6 rmoveto
            -11 -31 -26 -33 -34 -26 -125 129 rcurveline
            4 14 16 2 16 hhcurveto
            49 413 callsubr
            27 -64 hhcurveto
            -96 -106 -59 -130 -77 51 -62 78 -29 hvcurveto
            -120 -71 -62 callgsubr
            rlinecurve
            363 246 rlineto
            return
          </CharString>
          <CharString index="164">
            392 callgsubr
            -109 173 -198 233 -14 hvcurveto
            64 callgsubr
            -154 return
          </CharString>
          <CharString index="165">
            -157 -55 -70 -81 -87 65 -52 91 58 48 19 33 40 hvcurveto
            return
          </CharString>
          <CharString index="166">
            451 callsubr
            -48 -79 -109 105 -65 50 hvcurveto
            return
          </CharString>
          <CharString index="167">
            85 callgsubr
            154 -293 hlineto
            -106 callsubr
          </CharString>
          <CharString index="168">
            rmoveto
            -162 vlineto
            30 -7 39 7 5 39 7 53 rcurveline
            153 6 -266 -386 rlineto
            -18 10 -24 7 -13 vhcurveto
            400 164 hlineto
            -30 7 -39 -7 -5 -39 -9 -52 rcurveline
            -181 -6 260 379 rlineto
            15 -13 34 -11 10 vhcurveto
            return
          </CharString>
          <CharString index="169">
            43 22 36 35 25 14 -18 -24 vhcurveto
            -1 -42 -37 -32 -48 -15 rrcurveto
            return
          </CharString>
          <CharString index="170">
            -92 callsubr
            endchar
          </CharString>
          <CharString index="171">
            -79 callsubr
            72 -6 rlineto
            return
          </CharString>
          <CharString index="172">
            rmoveto
            545 vlineto
            -64 callgsubr
            5 callsubr
            -242 -290 244 vlineto
            -64 callgsubr
            -225 hlineto
            -50 4 -55 -10 1 hvcurveto
            72 -6 rlineto
            -545 242 callgsubr
            234 290 -236 106 callgsubr
            endchar
          </CharString>
          <CharString index="173">
            -167 355 105 60 105 hstem
            111 106 vstem
            433 625 rmoveto
            -482 -107 callgsubr
            482 492 callgsubr
            -165 211 callsubr
            -71 50 -72 83 -28 vhcurveto
            -116 378 callgsubr
            320 222 -28 143 rlineto
            -74 -24 -76 -49 -76 35 callsubr
            38 -21 26 vhcurveto
            return
          </CharString>
          <CharString index="174">
            rmoveto
            -6 16 -4 19 17 vvcurveto
            62 callsubr
            return
          </CharString>
          <CharString index="175">
            -148 vlineto
            -26 71 -20 49 vhcurveto
            return
          </CharString>
          <CharString index="176">
            -89 hlineto
            59 callgsubr
            return
          </CharString>
          <CharString index="177">
            124 189 120 return
          </CharString>
          <CharString index="178">
            -223 332 100 88 105 hstem
            -49 504 vstem
            376 625 rmoveto
            -425 -107 callgsubr
            425 -97 callgsubr
            -239 -193 rmoveto
            108 callgsubr
            -6 67 -20 55 -32 -295 -175 rcurveline
            -62 callgsubr
            306 211 rcurveline
            -9 101 rlineto
            85 -86 -111 20 -112 hhcurveto
            return
          </CharString>
          <CharString index="179">
            72 callgsubr
            vhcurveto
            324 callsubr
          </CharString>
          <CharString index="180">
            rmoveto
            159 hlineto
            96 callsubr
            return
          </CharString>
          <CharString index="181">
            127 callsubr
            -71 -16 hlineto
            -152 -112 -71 -132 return
          </CharString>
          <CharString index="182">
            -24 -5 -26 -7 -25 -11 rrcurveto
            -29 8 -34 23 46 vvcurveto
            21 7 15 8 11 vhcurveto
            return
          </CharString>
          <CharString index="183">
            -17 0 67 -67 75 539.5 70.5 return
          </CharString>
          <CharString index="184">
            -223 190 callsubr
            vstem
            374 625 rmoveto
            -423 -107 callgsubr
            423 -97 callgsubr
            -139 -152 rmoveto
            118 callsubr
            -72 46 -71 83 -28 hvcurveto
            -120 -71 -62 callgsubr
            rlinecurve
            363 246 -58 121 rlineto
            -66 -19 -100 -72 -73 hhcurveto
            -42 -42 20 59 63 51 41 75 41 38 -3 -20 28 hvcurveto
            14 58 rlineto
            35 -25 -60 30 -65 hhcurveto
            return
          </CharString>
          <CharString index="185">
            -246 360 callgsubr
            147 114 vstem
            436 337 rmoveto
            -45 -16 -56 -77 -100 hhcurveto
            -65 -48 22 36 -28 hvcurveto
            110 26 28 63 62 vvcurveto
            36 -13 33 -21 27 vhcurveto
            166 -97 callgsubr
            -403 158 callsubr
            81 callsubr
            -63 -32 -23 -95 -17 vhcurveto
            10 -85 52 -114 120 -32 -120 -71 rcurveline
            -62 callgsubr
            327 225 rcurveline
            return
          </CharString>
          <CharString index="186">
            -21 callgsubr
            142 -6 rlineto
            -132 vlineto
            -23 -22 -48 -16 -51 hhcurveto
            -148 -58 94 179 166 50 115 141 hvcurveto
            return
          </CharString>
          <CharString index="187">
            -226 -109 -154 -211 -218 99 -132 200 134 104 67 51 11 -6 15 -10 6 hvcurveto
            return
          </CharString>
          <CharString index="188">
            hlineto
            -57 callgsubr
            return
          </CharString>
          <CharString index="189">
            113 callgsubr
            hintmask 11100011
            480 -49 -101 callsubr
            -296 -107 callgsubr
            38 -186 -7 hlineto
            -48 -54 7 17 -41 hvcurveto
            36 37 25 43 54 vvcurveto
            hintmask 11011011
            93 callsubr
            return
          </CharString>
          <CharString index="190">
            -70 25 86 94 85 35 109 27 22 -2 -1 16 324 callgsubr
          </CharString>
          <CharString index="191">
            -50 callgsubr
            -419 180 rmoveto
            419 68 callgsubr
            -43 -40 -10 -20 -32 hvcurveto
            10 -22 -25 5 -28 hhcurveto
            -25 -34 -6 -30 -40 hvcurveto
            216 callgsubr
            659 180 rmoveto
            346 -97 callgsubr
            return
          </CharString>
          <CharString index="192">
            7 18 6 22 23 vvcurveto
            47 -29 29 -41 19 vhcurveto
            -70 33 -206 25 -63 30 -25 12 -21 31 -10 27 -45 -17 rcurveline
            5 -35 24 -64 35 -33 rrcurveto
            97 -91 277 30 -84 vvcurveto
            -8 -2 -7 -3 -7 vhcurveto
            return
          </CharString>
          <CharString index="193">
            -366 52 callsubr
            252 -91 callsubr
            return
          </CharString>
          <CharString index="194">
            hhcurveto
            38 40 9 17 34 hvcurveto
            281 callsubr
            return
          </CharString>
          <CharString index="195">
            hhcurveto
            48 34 -20 -39 44 hvcurveto
            -230 -140 9 -26 33 -48 16 -17 rlinecurve
            return
          </CharString>
          <CharString index="196">
            340 callgsubr
            -66 -43 -29 -32 -37 vhcurveto
            255 24 callgsubr
            -557 -18 callgsubr
            303 vlineto
            29 34 29 17 48 hhcurveto
            62 35 -23 -82 150 callsubr
          </CharString>
          <CharString index="197">
            -33 -31 -25 -39 -45 vvcurveto
            -74 66 -61 133 145 108 78 124 93 -68 28 -128 5 vhcurveto
            return
          </CharString>
          <CharString index="198">
            -62 149 callsubr
            -94 -120 return
          </CharString>
          <CharString index="199">
            82 78 52 116 103 43 -40 -63 -86 -79 -64 -110 return
          </CharString>
          <CharString index="200">
            80 -56 63 -93 -91 -51 -61 -61 -56 42 -56 44 -27 vhcurveto
            -42 -22 -57 -24 -45 -14 7 -30 30 -57 9 -6 63 15 67 34 54 39 return
          </CharString>
          <CharString index="201">
            296 -16 callsubr
            126 190 vlineto
            return
          </CharString>
          <CharString index="202">
            154 callgsubr
            56 -246 hlineto
            -51 -38 -61 -38 -63 -30 callsubr
            return
          </CharString>
          <CharString index="203">
            -107 callsubr
            -599 127 callsubr
            377 callsubr
            -129 -104 -80 -126 return
          </CharString>
          <CharString index="204">
            -63 -98 -42 -26 hhcurveto
            -9 -10 4 28 59 56 13 87 hvcurveto
            57 6 -2 26 hhcurveto
            12 37 42 23 hvcurveto
            return
          </CharString>
          <CharString index="205">
            268 callgsubr
            217.5 520 callsubr
            return
          </CharString>
          <CharString index="206">
            hhcurveto
            -52 -40 23 45 61 76 24 57 hvcurveto
            return
          </CharString>
          <CharString index="207">
            625 174 callsubr
            return
          </CharString>
          <CharString index="208">
            -30 13 28 -22 55 hhcurveto
            68 15 32 28 hvcurveto
            endchar
          </CharString>
          <CharString index="209">
            444 callsubr
            82 501 callsubr
            -844 -107 callgsubr
            64 -84 272 callsubr
            111 121 -219 vlineto
            -418 -239 5 -27 32 -45 20 -16 rlinecurve
            361 229 rlineto
            -177 -105 callgsubr
          </CharString>
          <CharString index="210">
            87 12 33 39 54 hhcurveto
            50 30 -32 -94 3 hvcurveto
            return
          </CharString>
          <CharString index="211">
            21 -56 142 14 rlineto
            13 1 49 -35 1 vhcurveto
            return
          </CharString>
          <CharString index="212">
            rmoveto
            189 hlineto
            144 callgsubr
            return
          </CharString>
          <CharString index="213">
            2 -32 16 -60 95 -36 128 callgsubr
            return
          </CharString>
          <CharString index="214">
            -11 32 -31 37 -32 19 rrcurveto
            -149 93 rmoveto
            -17 -59 -50 -17 -16 50 -59 16 16 58 53 15 13 -46 61 -18 hvcurveto
            endchar
          </CharString>
          <CharString index="215">
            77 34 -45 -82 hvcurveto
            55 -8 38 32 57 vvcurveto
            91 -98 31 -84 486 callsubr
            vhcurveto
            return
          </CharString>
          <CharString index="216">
            vlineto
            -52 callsubr
            -42 81 -100 52 10 17 3 4 6 vhcurveto
            23 17 17 44 64 vvcurveto
            return
          </CharString>
          <CharString index="217">
            240 callsubr
            80 11 51 48 161 vvcurveto
            29 -3 48 -9 41 vhcurveto
            366 hlineto
            -302 vmoveto
            21 callgsubr
            return
          </CharString>
          <CharString index="218">
            204 callgsubr
            -33 -44 -18 7 -13 9 -11 374 callgsubr
            return
          </CharString>
          <CharString index="219">
            -149 -100 -106 -173 -158 85 -98 142 108 85 61 39 11 -8 24 -14 9 return
          </CharString>
          <CharString index="220">
            -63 callgsubr
            -71 6 rlineto
            -1 return
          </CharString>
          <CharString index="221">
            hintmask 10100000
            -188 592 rmoveto
            83 9 rlineto
            hintmask 01100000
            -27 54 -16 36 45 134 callgsubr
            hintmask 10100000
            46 -44 -53 37 -68 25 callsubr
            82 23 46 hhcurveto
            112 57 -136 -68 28 hvcurveto
            return
          </CharString>
          <CharString index="222">
            16 callgsubr
            85 10 46 69 120 vvcurveto
            36 -2 57 -10 46 vhcurveto
            366 hlineto
            -302 vmoveto
            21 callgsubr
            return
          </CharString>
          <CharString index="223">
            -69 28 -49 21 35 vvcurveto
            26 28 21 40 vhcurveto
            hintmask 11110000
            54 45 -39 -49 hvcurveto
            46 -7 34 28 48 vvcurveto
            73 -83 20 -64 return
          </CharString>
          <CharString index="224">
            vlineto
            -121 -26 -11 -33 -28 -11 27 28 vhcurveto
            -39 -35 -19 -42 -65 68 -8 17 hvcurveto
            116 -1 93 86 223 vvcurveto
            return
          </CharString>
          <CharString index="225">
            -92 -108 -59 -127 return
          </CharString>
          <CharString index="226">
            -101 callsubr
            -127 hlineto
            105 -45 -129 171 -222 182 callgsubr
            vlineto
            endchar
          </CharString>
          <CharString index="227">
            -119 -23 -38 -9 -28 -11 -7 -30 rlinecurve
            -1 -5 -1 -5 -5 vvcurveto
            -56 63 -80 28 -6 vhcurveto
            -1 4 4 -1 4 hhcurveto
            19 22 10 10 1 hvcurveto
            8 30 -7 52 20 vvcurveto
            return
          </CharString>
          <CharString index="228">
            rmoveto
            -95 callgsubr
            hintmask 10110000
            177 hmoveto
            -95 callgsubr
            endchar
          </CharString>
          <CharString index="229">
            247 callgsubr
            -67 6 -164 228 122 138 22 1 49 3 -6 545 callgsubr
            -179 53 callgsubr
            57 -6 -141 -167 rlineto
            endchar
          </CharString>
          <CharString index="230">
            rmoveto
            83 9 rlineto
            85 -26 -109 214 -166 25 callsubr
            75 23 61 hhcurveto
            105 59 -142 -62 25 hvcurveto
            return
          </CharString>
          <CharString index="231">
            50 vvcurveto
            55 36 29 28 20 16 -10 -24 -22 -13 -13 -26 -18 vhcurveto
            3 -10 11 -20 9 -8 rrcurveto
            7 callgsubr
            -115 -53 -78 -74 -63 return
          </CharString>
          <CharString index="232">
            rlineto
            -35 -18 -19 -17 -28 vvcurveto
            -58 86 -62 33 21 16 15 14 29 -15 41 -7 19 vhcurveto
            return
          </CharString>
          <CharString index="233">
            69 callsubr
            hvcurveto
            return
          </CharString>
          <CharString index="234">
            -107 callgsubr
            321 return
          </CharString>
          <CharString index="235">
            109 -39 111 28 82 return
          </CharString>
          <CharString index="236">
            250 rmoveto
            -30 -26 -41 -25 -68 hhcurveto
            -65 -47 22 36 -28 hvcurveto
            1 vlineto
            109 29 28 72 69 261 callsubr
            -491 hmoveto
            212 81 callsubr
            -67 -25 -28 -73 -21 vhcurveto
            -24 1 -25 0 -24 318 callsubr
            749 186 -101 callsubr
            return
          </CharString>
          <CharString index="237" raw="1">
            a31dfcc2 070b  
          </CharString>
          <CharString index="238">
            108 -93 462 callsubr
            return
          </CharString>
          <CharString index="239">
            137 callgsubr
            23 -20 -33 29 -27 hhcurveto
            return
          </CharString>
          <CharString index="240">
            vvcurveto
            -45 -13 -41 -26 -37 vhcurveto
            26 -22 40 -14 39 -3 rrcurveto
            13 26 21 52 68 vvcurveto
            126 -77 82 -166 return
          </CharString>
          <CharString index="241">
            vvcurveto
            74 31 65 74 46 22 -24 -11 10 vhcurveto
            31 22 rlineto
            50 -12 -44 51 -75 hhcurveto
            -83 -49 -62 -63 -15 hvcurveto
            return
          </CharString>
          <CharString index="242">
            -18 -2 -35 -12 -18 -12 return
          </CharString>
          <CharString index="243">
            -64 callsubr
            -154 54 -53 84 197 callgsubr
            return
          </CharString>
          <CharString index="244">
            vvcurveto
            44 -5 42 -7 32 vhcurveto
            return
          </CharString>
          <CharString index="245">
            -34 -22 -23 -19 2 -28 rlinecurve
            4 -57 94 -70 33 2 21 2 28 20 -2 14 -2 29 -21 48 -7 19 return
          </CharString>
          <CharString index="246">
            -16 callgsubr
            97 return
          </CharString>
          <CharString index="247">
            92 -70 59 -92 -85 -70 -51 -87 -57 33 -46 45 -29 vhcurveto
            return
          </CharString>
          <CharString index="248">
            hlineto
            110 callgsubr
            -164 return
          </CharString>
          <CharString index="249">
            89 callgsubr
            81 callsubr
            return
          </CharString>
          <CharString index="250">
            -107 callgsubr
            348 -88 81 callgsubr
            -97 -83 -58 -113 -65 41 -65 64 -32 hvcurveto
            -51 -26 -34 -20 -24 -18 1 -28 rlinecurve
            2 -58 92 -73 33 1 21 1 28 19 -1 14 -1 29 -19 49 -7 19 165 101 rcurveline
            -116 vlineto
            -26 71 -20 49 vhcurveto
            return
          </CharString>
          <CharString index="251">
            -37 -44 -10 -13 -37 hvcurveto
            -2 23 -4 27 -6 26 -2 12 -3 11 -3 11 rrcurveto
            return
          </CharString>
          <CharString index="252">
            rmoveto
            -24 -1 -17 -3 -13 vhcurveto
            -133 156 rlineto
            137 hlineto
            -172 -43 rmoveto
            return
          </CharString>
          <CharString index="253">
            -335 143 callgsubr
            hlineto
            return
          </CharString>
          <CharString index="254">
            89 161 120 -18 75 return
          </CharString>
          <CharString index="255">
            -54 -233 85 582 71 -67.5 67.5 hstemhm
            1 535 -520 85 return
          </CharString>
          <CharString index="256">
            141 callsubr
            -80 return
          </CharString>
          <CharString index="257">
            165 callgsubr
            endchar
          </CharString>
          <CharString index="258">
            349 callgsubr
            60 38 63 67 61 hhcurveto
            4 4 0 -1 3 hvcurveto
            -116 18 58 -89 119 87 callsubr
            return
          </CharString>
          <CharString index="259">
            146 callgsubr
            191 callsubr
            hintmask 01111010
            return
          </CharString>
          <CharString index="260">
            11 -15 91 -86 77 367 71 234 callsubr
            hintmask 01111000
            return
          </CharString>
          <CharString index="261">
            -93 -15 89 171 69 126 80 475 callsubr
            534 callsubr
            vstem
            return
          </CharString>
          <CharString index="262">
            rmoveto
            -45 -30 33 78 70 25 44 51 50 27 -42 -70 -73 -30 -40 -48 hvcurveto
            return
          </CharString>
          <CharString index="263">
            -141 86 -94 128 120 68 85 123 vhcurveto
            return
          </CharString>
          <CharString index="264">
            108 -32 117 129 112 return
          </CharString>
          <CharString index="265">
            -107 callgsubr
            130 return
          </CharString>
          <CharString index="266">
            vhcurveto
            11 7 23 19 7 13 rrcurveto
            return
          </CharString>
          <CharString index="267">
            -45 callgsubr
            vstem
            return
          </CharString>
          <CharString index="268">
            -25 -34 -6 -30 -40 return
          </CharString>
          <CharString index="269">
            284 520 rmoveto
            112 callsubr
            hvcurveto
            42 callsubr
            vhcurveto
            return
          </CharString>
          <CharString index="270">
            58 callgsubr
            hintmask 10111000
            226 callsubr
            rlineto
            hintmask 01111000
            103 callgsubr
          </CharString>
          <CharString index="271">
            -21 rlineto
            -73 callgsubr
            return
          </CharString>
          <CharString index="272">
            -57 -99 -94 -55 callgsubr
            69 vvcurveto
            return
          </CharString>
          <CharString index="273">
            -41 35 -11 27 28 vvcurveto
            42 23 27 37 42 23 -35 -54 -93 -68 -67 -51 -14 vhcurveto
            24 -21 -32 28 -27 hhcurveto
            -34 -43 -42 -34 -44 71 -23 34 7 6 0 1 4 hvcurveto
            48 -67 52 -77 45 -84 26 13 54 40 9 24 -34 54 -76 69 -57 49 rrcurveto
            return
          </CharString>
          <CharString index="274">
            -31 -30 -5 -10 -27 hvcurveto
            -24 24 -6 21 14 vvcurveto
            23 31 14 79 vhcurveto
            return
          </CharString>
          <CharString index="275">
            142 callsubr
            -75 return
          </CharString>
          <CharString index="276">
            88 97 199 callgsubr
            return
          </CharString>
          <CharString index="277">
            6 -23 46 -58 20 -12 158 121 rcurveline
            return
          </CharString>
          <CharString index="278">
            -81 -69 36 83 55 33 77 142 hvcurveto
            return
          </CharString>
          <CharString index="279">
            11 9 26 22 3 23 rrcurveto
            return
          </CharString>
          <CharString index="280">
            hhcurveto
            -68 -20 45 135 hvcurveto
            return
          </CharString>
          <CharString index="281">
            rmoveto
            -106 callgsubr
            return
          </CharString>
          <CharString index="282">
            -89 hlineto
            1 callgsubr
            return
          </CharString>
          <CharString index="283">
            -58 521 178 hstem
            103 428 vstem
            531 229 callsubr
            endchar
          </CharString>
          <CharString index="284">
            158 callsubr
            55 callgsubr
            493 callgsubr
            return
          </CharString>
          <CharString index="285">
            200 callsubr
            116 return
          </CharString>
          <CharString index="286">
            9 -14 vhcurveto
            -12 -22 -29 -2 -21 hhcurveto
            return
          </CharString>
          <CharString index="287">
            hhcurveto
            -41 -40 25 58 return
          </CharString>
          <CharString index="288">
            -107 callgsubr
            159 hlineto
            94 callgsubr
            return
          </CharString>
          <CharString index="289">
            -202 80 158 210 callgsubr
            hintmask 11110110
            234 -122 rmoveto
            -32 -43 14 48 80 102 16 76 21 20 -2 -1 14 hvcurveto
            -91 -18 -72 -64 -68 hhcurveto
            204 642 rmoveto
            return
          </CharString>
          <CharString index="290">
            rmoveto
            132 hlineto
            353 callgsubr
            return
          </CharString>
          <CharString index="291">
            307 callsubr
            161 120 -18 75 return
          </CharString>
          <CharString index="292">
            -11 19 -40 48 -38 42 rrcurveto
            return
          </CharString>
          <CharString index="293">
            420 callgsubr
            135 callsubr
            rrcurveto
            -182 47 101 -185 return
          </CharString>
          <CharString index="294">
            -78 -65 -75 -54 -14 vhcurveto
            return
          </CharString>
          <CharString index="295">
            hlineto
            -98 callgsubr
            return
          </CharString>
          <CharString index="296">
            -280 vmoveto
            -46 callsubr
            return
          </CharString>
          <CharString index="297">
            373 402 callsubr
            35 103 return
          </CharString>
          <CharString index="298">
            hstemhm
            30 127 -96 93 170 122 return
          </CharString>
          <CharString index="299">
            hintmask 10111101
            48 100 243 callgsubr
            -9 -19 -51 -71 -48 -90 -81 -70 47 69 -59 hvcurveto
            -18 -6 -23 -16 -8 -24 return
          </CharString>
          <CharString index="300">
            0 0 79.5 526.5 79 hstem
            65 81.5 334.5 75 vstem
            return
          </CharString>
          <CharString index="301">
            43 51 25 -41 -31 15 vhcurveto
            47 19 rlineto
            73 -5 -49 69 -93 hhcurveto
            -81 -51 -56 return
          </CharString>
          <CharString index="302">
            59 0 68 352 100 398 callgsubr
            208 122 vstem
            return
          </CharString>
          <CharString index="303">
            66 65 33 92 hvcurveto
            18 21 -1 12 hhcurveto
            23 33 40 22 hvcurveto
            return
          </CharString>
          <CharString index="304">
            275 callgsubr
            34 -12 rlineto
            275 callsubr
            return
          </CharString>
          <CharString index="305">
            -107 callgsubr
            320 return
          </CharString>
          <CharString index="306">
            hstem
            35 130 359 130 vstem
            return
          </CharString>
          <CharString index="307">
            hhcurveto
            161 callsubr
            hvcurveto
            return
          </CharString>
          <CharString index="308">
            31 31 39 38 -31 32 return
          </CharString>
          <CharString index="309">
            307 callgsubr
            -130 39 -118 100 -34 vhcurveto
            -139 -93 -62 callgsubr
            rlinecurve
            248 190 rlineto
            -144 vlineto
            -26 71 -20 49 vhcurveto
            237 vlineto
            468 callsubr
            return
          </CharString>
          <CharString index="310">
            -2 -14 -14 vvcurveto
            return
          </CharString>
          <CharString index="311">
            10 555 170 hstem
            94 350 vstem
            269 639 rmoveto
            -140 86 -17 -10 -8 -9 -10 -19 rlinecurve
            139 -126 32 -7 12 -1 32 8 rlinecurve
            135 126 -9 14 -12 15 -16 9 rlinecurve
            endchar
          </CharString>
          <CharString index="312">
            378 117 rmoveto
            -30 -33 -29 -15 -37 hhcurveto
            -79 -38 68 112 90 19 97 94 42 37 -20 -20 24 hvcurveto
            return
          </CharString>
          <CharString index="313">
            -76 -36 -41 -39 -66 hhcurveto
            -40 -51 17 79 -44 hvcurveto
            -19 -9 -31 -15 -15 -15 rrcurveto
            -76 31 73 -75 118 hhcurveto
            return
          </CharString>
          <CharString index="314">
            -366 hlineto
            96 callgsubr
            return
          </CharString>
          <CharString index="315">
            30 callgsubr
            endchar
          </CharString>
          <CharString index="316">
            13 callgsubr
            -5 vhcurveto
            2 243 callsubr
            return
          </CharString>
          <CharString index="317">
            hvcurveto
            221 callsubr
            return
          </CharString>
          <CharString index="318">
            rmoveto
            222 callsubr
            return
          </CharString>
          <CharString index="319">
            22 -47 31 -59 25 11 61 46 11 23 -25 39 return
          </CharString>
          <CharString index="320">
            18 60 54 12 -23 callgsubr
            return
          </CharString>
          <CharString index="321">
            -86 callgsubr
            138 hlineto
            return
          </CharString>
          <CharString index="322" raw="1">
            9e91b2a8 96a04d0a 0b 
          </CharString>
          <CharString index="323">
            230 -82 callgsubr
            hvcurveto
            return
          </CharString>
          <CharString index="324">
            74 70 callsubr
            return
          </CharString>
          <CharString index="325">
            473 callsubr
            229 71 -67 callsubr
            return
          </CharString>
          <CharString index="326">
            hhcurveto
            -57 -38 31 62 70 48 42 77 388 callgsubr
            26 -64 hhcurveto
            return
          </CharString>
          <CharString index="327">
            48 37 -52 83 hhcurveto
            77 39 44 87 13 hvcurveto
            -37 9 rlineto
            -29 -8 -27 -22 -40 -64 -29 59 -72 hhcurveto
            return
          </CharString>
          <CharString index="328">
            -34 callgsubr
            -79 63 -68 59 88 vvcurveto
            55 27 38 52 return
          </CharString>
          <CharString index="329">
            -335 hlineto
            -41 18 -38 280 callsubr
            return
          </CharString>
          <CharString index="330">
            47 36 36 47 46 -36 37 -47 -46 -37 -37 -46 -47 37 -36 46 hvcurveto
            return
          </CharString>
          <CharString index="331">
            -107 callgsubr
            467 return
          </CharString>
          <CharString index="332">
            90 -42 103 82 155 -110 87 return
          </CharString>
          <CharString index="333">
            -545 vlineto
            -29 -2 return
          </CharString>
          <CharString index="334">
            55 8 23 117 return
          </CharString>
          <CharString index="335">
            19 6 39 29 11 21 20 callgsubr
          </CharString>
          <CharString index="336">
            631 45 callsubr
            return
          </CharString>
          <CharString index="337">
            2 -45 -17 callgsubr
            158 203 vlineto
            -53 callgsubr
            return
          </CharString>
          <CharString index="338">
            rmoveto
            -141 vlineto
            -45 42 1 22 vhcurveto
            10 110 rlineto
            return
          </CharString>
          <CharString index="339">
            -59 59 callsubr
            return
          </CharString>
          <CharString index="340">
            rmoveto
            171 callsubr
            return
          </CharString>
          <CharString index="341">
            hstemhm
            83 122 193 122 return
          </CharString>
          <CharString index="342">
            55 32 105 81 88 vvcurveto
            56 -44 42 -89 -68 -56 -35 -48 -40 34 -9 35 1 vhcurveto
            39 15 42 43 24 14 -23 -27 -80 -110 -76 -64 -51 vhcurveto
            -2 -7 12 -34 2 -5 rrcurveto
            return
          </CharString>
          <CharString index="343">
            1 10 29 9 28 hhcurveto
            51 37 -28 -46 -46 -37 -38 -60 -101 -77 107 135 -63 hvcurveto
            -20 -5 -35 -19 -7 -9 rrcurveto
            -139 53 103 -185 175 hhcurveto
            114 70 78 98 return
          </CharString>
          <CharString index="344">
            -38 87 471 105 hstemhm
            49 109 -104 120 172 120 return
          </CharString>
          <CharString index="345">
            36 -15 -46 57 -82 hhcurveto
            return
          </CharString>
          <CharString index="346">
            hlineto
            1 -28 13 -43 19 406 callgsubr
            39 28 8 14 rrcurveto
            -31 41 -62 85 76 vvcurveto
            70 45 30 84 vhcurveto
            return
          </CharString>
          <CharString index="347">
            412 16 callgsubr
            return
          </CharString>
          <CharString index="348">
            -37 -29 -24 -42 -51 222 callgsubr
            return
          </CharString>
          <CharString index="349">
            -107 callgsubr
            294 232 callsubr
            return
          </CharString>
          <CharString index="350">
            -19 -21 2 -9 hhcurveto
            return
          </CharString>
          <CharString index="351">
            vvcurveto
            507 callsubr
            94 213 -79 callgsubr
            -653 74 callsubr
            -120 return
          </CharString>
          <CharString index="352">
            574 -40 callgsubr
            return
          </CharString>
          <CharString index="353">
            -145 150 rlineto
            5 16 18 2 19 hhcurveto
            41 413 callsubr
            27 -64 hhcurveto
            -96 -106 -59 429 callgsubr
            115 return
          </CharString>
          <CharString index="354">
            -34 4 -29 25 36 vvcurveto
            29 20 28 41 31 18 -17 -28 16 vhcurveto
            12 3 12 5 10 8 rrcurveto
            256 callsubr
            -84 -54 -57 -69 -63 44 -40 69 -22 hvcurveto
            return
          </CharString>
          <CharString index="355">
            rmoveto
            89 128 rlineto
            -128 vlineto
            135 hmoveto
            -45 243 hlineto
            -19 2 -35 -2 -21 -4 return
          </CharString>
          <CharString index="356">
            -62 33 3 21 3 27 21 -3 14 -3 29 -22 47 -8 19 return
          </CharString>
          <CharString index="357">
            253 96 171 105 -68 77 hstemhm
            70 313 callgsubr
            return
          </CharString>
          <CharString index="358">
            -48 -15 76 382 77 253 callsubr
            return
          </CharString>
          <CharString index="359">
            -30 -35 -20 -38 -38 vvcurveto
            -21 5 -15 10 -12 vhcurveto
            return
          </CharString>
          <CharString index="360">
            475 callsubr
            218 127 vstem
            return
          </CharString>
          <CharString index="361">
            23 14 15 64 4 37 rrcurveto
            return
          </CharString>
          <CharString index="362">
            -103 89 -128 56 -72 return
          </CharString>
          <CharString index="363">
            34 -4 -27 78 -99 hhcurveto
            return
          </CharString>
          <CharString index="364">
            145 -99 39 -78 return
          </CharString>
          <CharString index="365">
            -89 vlineto
            270 callgsubr
          </CharString>
          <CharString index="366">
            50 110 55 85 220 105 -91 101 return
          </CharString>
          <CharString index="367">
            42 37 18 48 50 -45 19 -67 -1 hvcurveto
            return
          </CharString>
          <CharString index="368">
            vvcurveto
            36 -13 33 -21 27 vhcurveto
            172 hlineto
            return
          </CharString>
          <CharString index="369">
            105 176 119 -103 172 return
          </CharString>
          <CharString index="370">
            190 152 119 182 return
          </CharString>
          <CharString index="371">
            102 431 rmoveto
            56 4 51 -8 -51 vvcurveto
            -31 -24 -21 -37 -37 -25 22 28 vhcurveto
            -34 -17 -18 -20 -31 41 -31 78 99 52 50 57 47 -36 36 -66 7 hvcurveto
            return
          </CharString>
          <CharString index="372">
            520 73 callsubr
            return
          </CharString>
          <CharString index="373">
            278 callgsubr
            vhcurveto
            return
          </CharString>
          <CharString index="374">
            -30 -41 -42 55 -33 58 -18 hvcurveto
            35 -56 29 -82 21 -49 142 callgsubr
            return
          </CharString>
          <CharString index="375">
            55 -54 109 -78 return
          </CharString>
          <CharString index="376">
            624 93 81 -13 143 49 87 -78 93 60 70 callgsubr
            38 328 callsubr
            hintmask 1010011111100000
            return
          </CharString>
          <CharString index="377">
            -37 callgsubr
            endchar
          </CharString>
          <CharString index="378">
            rmoveto
            403 callsubr
            17 56 50 11 20 -49 58 -17 -15 -58 -47 -19 vhcurveto
            endchar
          </CharString>
          <CharString index="379">
            hlineto
            156 callsubr
            return
          </CharString>
          <CharString index="380">
            109 80 75 66 31 hvcurveto
            -20 23 -49 34 -30 11 rrcurveto
            return
          </CharString>
          <CharString index="381">
            rmoveto
            -70 295 70 vlineto
            endchar
          </CharString>
          <CharString index="382">
            26 8 22 18 25 hhcurveto
            return
          </CharString>
          <CharString index="383">
            364 callgsubr
            7 -1 -3 7 hvcurveto
            -13 -19 -7 -23 -29 196 callgsubr
            return
          </CharString>
          <CharString index="384">
            -80 rmoveto
            167 -202 rlineto
            -21 -26 -29 -13 -24 173 callsubr
            return
          </CharString>
          <CharString index="385">
            -121 90 -104 158 46 40 9 15 32 return
          </CharString>
          <CharString index="386">
            -121 53 -57 90 89 53 58 124 vhcurveto
            return
          </CharString>
          <CharString index="387">
            21 -26 vhcurveto
            79 381 callgsubr
            return
          </CharString>
          <CharString index="388">
            68 callsubr
            237 vlineto
            return
          </CharString>
          <CharString index="389">
            104 176 119 45 90 return
          </CharString>
          <CharString index="390">
            267 callsubr
            185 callsubr
            2 255 callgsubr
            return
          </CharString>
          <CharString index="391">
            218 rmoveto
            21 callgsubr
            279 callgsubr
            return
          </CharString>
          <CharString index="392">
            282 callgsubr
            endchar
          </CharString>
          <CharString index="393">
            540 vlineto
            endchar
          </CharString>
          <CharString index="394">
            -120 320 callsubr
            205 return
          </CharString>
          <CharString index="395">
            -35 -54 -73 vvcurveto
            -163 154 -94 241 -48 vhcurveto
            9 17 14 34 4 19 rrcurveto
            -234 51 -74 71 96 vvcurveto
            119 116 48 98 return
          </CharString>
          <CharString index="396">
            -25 callgsubr
            hvcurveto
            return
          </CharString>
          <CharString index="397">
            rmoveto
            27 -7 16 0 24 7 30 222 rcurveline
            -45 8 -40 -3 -35 -12 rrcurveto
            return
          </CharString>
          <CharString index="398">
            hhcurveto
            -16 -16 1 2 -14 hvcurveto
            34 31 29 44 59 vvcurveto
            return
          </CharString>
          <CharString index="399">
            88 78 310 callsubr
            return
          </CharString>
          <CharString index="400">
            159 -97 callgsubr
            return
          </CharString>
          <CharString index="401">
            -83 -52 -46 -81 -94 100 -62 42 hvcurveto
            return
          </CharString>
          <CharString index="402">
            vhcurveto
            -35 callsubr
            return
          </CharString>
          <CharString index="403">
            179 61 94 118 return
          </CharString>
          <CharString index="404">
            -91 77 -65 112 return
          </CharString>
          <CharString index="405">
            123 -32 vhcurveto
            return
          </CharString>
          <CharString index="406">
            hlineto
            -218 -106 -41 -130 255 callsubr
            hvcurveto
            16 3 38 24 12 14 rrcurveto
            -29 42 -67 99 76 vvcurveto
            73 71 28 114 return
          </CharString>
          <CharString index="407">
            -6 108 237 83 -72 78 28 105 hstemhm
            37 157 callsubr
            -14 100 22 97 210 472 callgsubr
            return
          </CharString>
          <CharString index="408">
            431 callgsubr
            -74 -4 -45 -23 -47 31 callgsubr
            return
          </CharString>
          <CharString index="409">
            hlineto
            106 callsubr
            hintmask 1010101111000000
            -27 callgsubr
            return
          </CharString>
          <CharString index="410">
            hlineto
            -83 callsubr
            -19 5 -24 hhcurveto
            -45 -40 -18 -52 101 callgsubr
            34 -60 return
          </CharString>
          <CharString index="411">
            381 0 145 -124 -21 617 68 hstemhm
            1 969 hintmask 01110000
            return
          </CharString>
          <CharString index="412">
            81 179 87 -78 93 -82 100 47 -15 callsubr
            return
          </CharString>
          <CharString index="413">
            376 callgsubr
            286 callsubr
          </CharString>
          <CharString index="414">
            263 callgsubr
            91 89 return
          </CharString>
          <CharString index="415">
            -107 -233 89 290 73 225 76 return
          </CharString>
          <CharString index="416">
            371 callsubr
            vstem
            return
          </CharString>
          <CharString index="417">
            105 hstemhm
            313 callsubr
            return
          </CharString>
          <CharString index="418">
            9 13 14 35 2 24 rrcurveto
            return
          </CharString>
          <CharString index="419">
            110 -105 105 hstemhm
            return
          </CharString>
          <CharString index="420">
            175 94 48 100 return
          </CharString>
          <CharString index="421">
            -107 callgsubr
            133 -153 hlineto
            -17 -47 -62 -8 -61 hhcurveto
            -36 -35 3 5 -32 hvcurveto
            34 31 29 44 59 vvcurveto
            return
          </CharString>
          <CharString index="422">
            hvcurveto
            -230 -140 9 -26 33 -48 16 -17 rlinecurve
            222 158 rlineto
            -187 -105 callgsubr
          </CharString>
          <CharString index="423">
            520 rmoveto
            138 -97 callgsubr
            return
          </CharString>
          <CharString index="424">
            141 21 -21 437 68 hstem
            0 731 vstem
            return
          </CharString>
          <CharString index="425">
            -25 -24 0 -19 hflex1
            return
          </CharString>
          <CharString index="426">
            79 -15 80 552 68 return
          </CharString>
          <CharString index="427">
            -89 callgsubr
            17 38 64 vvcurveto
            return
          </CharString>
          <CharString index="428">
            171 callgsubr
            59 57 18 27 46 vhcurveto
            -107 -105 callgsubr
          </CharString>
          <CharString index="429">
            -101 callsubr
            -637 -107 callgsubr
            return
          </CharString>
          <CharString index="430">
            -36 -14 32 47 vhcurveto
            -64 -21 -37 -43 -43 40 -40 66 118 72 return
          </CharString>
          <CharString index="431">
            172 callsubr
            endchar
          </CharString>
          <CharString index="432">
            141 50 141 return
          </CharString>
          <CharString index="433">
            354 hlineto
            15 -15 10 -19 -26 vvcurveto
            -39 -34 -32 -47 -24 vhcurveto
            -25 -13 -26 -9 -23 -4 5 -34 28 -50 11 -11 rrcurveto
            return
          </CharString>
          <CharString index="434">
            -86 callsubr
            -53 callsubr
            endchar
          </CharString>
          <CharString index="435">
            107 213 120 188 83 return
          </CharString>
          <CharString index="436">
            100 47 105 hstemhm
            return
          </CharString>
          <CharString index="437">
            554 47 111 -71 108 124 105 96 528 callsubr
            206 -45 callgsubr
            hintmask 01111110
            return
          </CharString>
          <CharString index="438">
            -126 hhcurveto
            -13 -6 -24 -27 -5 -19 rrcurveto
            21 -22 37 -29 -46 vvcurveto
            -35 -22 -15 -31 -82 -72 108 66 -25 vhcurveto
            return
          </CharString>
          <CharString index="439">
            -28 -22 -18 -29 -40 vvcurveto
            -83 80 -92 120 45 39 12 18 32 vhcurveto
            -81 239 callgsubr
            414 vlineto
            return
          </CharString>
          <CharString index="440">
            -27 callgsubr
            -69 return
          </CharString>
          <CharString index="441">
            276 87 157 105 hstem
            120 112 return
          </CharString>
          <CharString index="442">
            369 callsubr
            hlineto
            return
          </CharString>
          <CharString index="443">
            vhcurveto
            -134 -67 -62 callgsubr
            rlinecurve
            return
          </CharString>
          <CharString index="444">
            hhcurveto
            -118 -113 37 85 -59 hvcurveto
            return
          </CharString>
          <CharString index="445">
            19 6 39 29 11 21 -53 49 -105 return
          </CharString>
          <CharString index="446">
            76 563 76 hstemhm
            25 106 -76 104 return
          </CharString>
          <CharString index="447">
            105 hstemhm
            312 callgsubr
            return
          </CharString>
          <CharString index="448">
            213 -97 callgsubr
            return
          </CharString>
          <CharString index="449">
            87 108 325 105 hstem
            return
          </CharString>
          <CharString index="450">
            105 -68 68 -68 77 hstemhm
            return
          </CharString>
          <CharString index="451">
            114 363 120 return
          </CharString>
          <CharString index="452">
            -23 -20 -4 -6 -18 hvcurveto
            return
          </CharString>
          <CharString index="453">
            105 474 callsubr
            return
          </CharString>
          <CharString index="454">
            227 569 113 callgsubr
            return
          </CharString>
          <CharString index="455">
            -7 19 hvcurveto
            -4 25 27 -2 27 hhcurveto
            54 55 10 26 38 hvcurveto
            -5 110 rlineto
            -44 -59 -78 -15 -70 hhcurveto
            -24 return
          </CharString>
          <CharString index="456">
            -18 -2 -22 -10 -18 -12 rrcurveto
            -111 40 92 -140 125 hhcurveto
            78 41 54 66 27 -8 24 -13 22 hvcurveto
            return
          </CharString>
          <CharString index="457">
            -97 12 68 -137 165 hhcurveto
            56 41 16 16 29 hvcurveto
            -56 -105 callgsubr
          </CharString>
          <CharString index="458">
            238 18 -21 25 -21 86 395 callgsubr
            hstemhm
            173 463 callsubr
            hintmask 01111111
            return
          </CharString>
          <CharString index="459">
            203 96 16 108 -93 91 99 343 callsubr
            33 114 277 95 113 117 return
          </CharString>
          <CharString index="460">
            -33 -24 -23 -19 3 -28 rlinecurve
            -56 6 93 -65 35 hhcurveto
            17 34 20 18 -4 hvcurveto
            -3 29 -22 47 -8 19 return
          </CharString>
          <CharString index="461">
            -65 rmoveto
            -50 -35 -56 -28 -48 hhcurveto
            -54 -25 33 37 49 45 25 56 5 hvcurveto
            41 4 39 8 37 12 rrcurveto
            return
          </CharString>
          <CharString index="462">
            630 rmoveto
            -115 hlineto
            -356 -630 rlineto
            115 hlineto
            return
          </CharString>
          <CharString index="463">
            -290 -82 callgsubr
            hvcurveto
            return
          </CharString>
          <CharString index="464">
            -15 80 316 callgsubr
            return
          </CharString>
          <CharString index="465">
            hhcurveto
            55 41 16 17 30 hvcurveto
            311 callgsubr
            return
          </CharString>
          <CharString index="466">
            113 125 return
          </CharString>
          <CharString index="467">
            -102 -51 -128 -78 hhcurveto
            -19 -11 1 4 -11 hvcurveto
            5 18 3 21 25 vvcurveto
            31 -9 56 -12 45 vhcurveto
            return
          </CharString>
          <CharString index="468">
            -233 -8 rlineto
            229 vlineto
            180 -10 6 31 -1 41 -6 27 rlinecurve
            -179 -21 rlineto
            248 vlineto
            return
          </CharString>
          <CharString index="469">
            -234 -8 rlineto
            229 vlineto
            180 -10 6 31 -1 41 -6 27 rlinecurve
            -179 -21 rlineto
            248 vlineto
            return
          </CharString>
          <CharString index="470">
            rlineto
            -558 259 callgsubr
          </CharString>
          <CharString index="471">
            340 callgsubr
            -70 return
          </CharString>
          <CharString index="472">
            125 79 316 105 hstem
            75 120 return
          </CharString>
          <CharString index="473">
            rmoveto
            456 callsubr
            return
          </CharString>
          <CharString index="474">
            69 hstemhm
            112 125 310 130 return
          </CharString>
          <CharString index="475">
            177 85 8 73 65 79 33 105 hstemhm
            return
          </CharString>
          <CharString index="476">
            107 callgsubr
            365 return
          </CharString>
          <CharString index="477">
            39 31 -9 -12 25 hvcurveto
            return
          </CharString>
          <CharString index="478">
            476 callgsubr
            120 return
          </CharString>
          <CharString index="479">
            230 -50 callgsubr
            return
          </CharString>
          <CharString index="480">
            409 callgsubr
            -10 -17 -7 -28 return
          </CharString>
          <CharString index="481">
            104 60 114 65 hhcurveto
            48 41 -20 -39 47 hvcurveto
            -214 -121 9 -26 33 -48 16 -17 rlinecurve
            return
          </CharString>
          <CharString index="482">
            rmoveto
            -356 -630 rlineto
            105 hlineto
            356 630 rlineto
            return
          </CharString>
          <CharString index="483">
            0 68 367 70 155 70 return
          </CharString>
          <CharString index="484">
            -73 hlineto
            226 callgsubr
            return
          </CharString>
          <CharString index="485">
            -73 vlineto
            226 callgsubr
            return
          </CharString>
          <CharString index="486">
            hhcurveto
            -30 -45 -8 -51 -50 hvcurveto
            return
          </CharString>
          <CharString index="487">
            89 168 120 -18 75 return
          </CharString>
          <CharString index="488">
            109 -53 111 return
          </CharString>
          <CharString index="489">
            -33 -24 -20 -12 -35 vvcurveto
            -57 105 -64 31 20 28 24 14 -3 vhcurveto
            -3 29 -16 51 -7 19 return
          </CharString>
          <CharString index="490">
            -107 callgsubr
            303 232 callsubr
            return
          </CharString>
          <CharString index="491">
            hlineto
            -1 -8 -1 -8 -8 vvcurveto
            -94 89 -133 56 -71 213 callgsubr
            return
          </CharString>
          <CharString index="492">
            417 callgsubr
            487 callgsubr
            vhcurveto
            return
          </CharString>
          <CharString index="493">
            423 callgsubr
            vhcurveto
            endchar
          </CharString>
          <CharString index="494">
            hhcurveto
            111 90 69 96 268 callsubr
            hvcurveto
            return
          </CharString>
          <CharString index="495">
            -78 -31 -72 -69 -55 hhcurveto
            -58 -10 45 136 hvcurveto
            return
          </CharString>
          <CharString index="496">
            52 96 -149 141 hhcurveto
            75 56 41 82 hvcurveto
            return
          </CharString>
          <CharString index="497">
            1 -13 -13 1 -14 hhcurveto
            -137 -89 return
          </CharString>
          <CharString index="498">
            427 callsubr
            vstem
            return
          </CharString>
          <CharString index="499">
            78 90 176 108 -93 91 -77 return
          </CharString>
          <CharString index="500">
            104 -60 41 -125 55 return
          </CharString>
          <CharString index="501">
            70 40 98 70 105 hstemhm
            return
          </CharString>
          <CharString index="502">
            105 -56 56 -56 61 hstemhm
            return
          </CharString>
          <CharString index="503">
            153 -93 57 -91 return
          </CharString>
          <CharString index="504">
            hstemhm
            398 callsubr
            return
          </CharString>
          <CharString index="505">
            123 119 return
          </CharString>
          <CharString index="506">
            -65 hlineto
            3 -18 -29 -1 -17 hhcurveto
            -103 -1 -45 -48 -58 vvcurveto
            -45 26 -38 45 -40 vhcurveto
            return
          </CharString>
          <CharString index="507">
            423 callsubr
            516 return
          </CharString>
          <CharString index="508">
            156 48 95 -92 106 200 103 60 105 hstemhm
            32 85 365 120 17 94 return
          </CharString>
          <CharString index="509">
            100 47 105 hstem
            return
          </CharString>
          <CharString index="510">
            -16 46 -57 20 return
          </CharString>
          <CharString index="511">
            296 rmoveto
            -38 -18 -53 -12 -37 -4 rrcurveto
            hintmask 1000110111101000
            25 -22 -29 18 -35 hhcurveto
            return
          </CharString>
          <CharString index="512">
            510 callgsubr
            19 14 -17 -47 vhcurveto
            42 37 18 48 50 -45 19 -51 -1 hvcurveto
            return
          </CharString>
          <CharString index="513">
            -48 -90 -81 -70 47 69 -59 hvcurveto
            -18 -6 -23 -16 -8 -24 rrcurveto
            -104 75 106 -66 return
          </CharString>
          <CharString index="514">
            173 callgsubr
            -40 callsubr
            return
          </CharString>
          <CharString index="515">
            201 callgsubr
            32 4 27 10 21 17 rrcurveto
            -21 42 58 -10 53 hhcurveto
            return
          </CharString>
          <CharString index="516">
            147 callgsubr
            263 callsubr
            return
          </CharString>
          <CharString index="517">
            191 14 callsubr
            return
          </CharString>
          <CharString index="518">
            436 callsubr
            endchar
          </CharString>
          <CharString index="519">
            rmoveto
            -438 -250 5 -27 32 -45 20 -16 rlinecurve
            411 261 rlineto
            endchar
          </CharString>
          <CharString index="520">
            347 callgsubr
            77 callgsubr
            return
          </CharString>
          <CharString index="521">
            1101 -91 callgsubr
            return
          </CharString>
          <CharString index="522">
            -84 -24 94 90 103 -60 471 callsubr
            return
          </CharString>
          <CharString index="523">
            94 48 421 callgsubr
            return
          </CharString>
          <CharString index="524">
            hlineto
            -21 26 -18 38 41 vvcurveto
            return
          </CharString>
          <CharString index="525">
            231 93 196 105 hstem
            return
          </CharString>
          <CharString index="526">
            -61 -105 325 callgsubr
            return
          </CharString>
          <CharString index="527">
            100 -77 78 -104 vhcurveto
            return
          </CharString>
          <CharString index="528">
            126 callsubr
            hintmask 0110111110000000
            return
          </CharString>
          <CharString index="529">
            79 -72 79 309 529 callsubr
            209 508 callsubr
            return
          </CharString>
          <CharString index="530">
            -91 callgsubr
            -773 -107 callgsubr
            return
          </CharString>
          <CharString index="531">
            hlineto
            -86 callsubr
            return
          </CharString>
          <CharString index="532">
            -45 callgsubr
            hintmask 10111111
            return
          </CharString>
          <CharString index="533">
            hvcurveto
            -97 vlineto
            -26 71 -20 49 vhcurveto
            return
          </CharString>
          <CharString index="534">
            360 callgsubr
            122 120 return
          </CharString>
          <CharString index="535">
            -72 hlineto
            110 callgsubr
            return
          </CharString>
          <CharString index="536">
            -187 vlineto
            -26 71 -20 49 vhcurveto
            return
          </CharString>
          <CharString index="537">
            70 397 callgsubr
            return
          </CharString>
          <CharString index="538">
            -176 -88 -37 -114 return
          </CharString>
          <CharString index="539">
            vlineto
            396 callsubr
            return
          </CharString>
          <CharString index="540">
            -10 33 -39 52 -14 11 rrcurveto
            -15 -23 -37 -19 -39 hhcurveto
            -34 -16 12 24 return
          </CharString>
          <CharString index="541">
            rmoveto
            -9 -21 -24 -5 -25 hhcurveto
            -66 -38 33 60 29 9 24 17 19 hvcurveto
            return
          </CharString>
          <CharString index="542">
            111 -49 -73 29 -51 hhcurveto
            -73 -75 -49 -84 -95 80 -49 90 -1 hvcurveto
            return
          </CharString>
          <CharString index="543">
            296 callgsubr
            503 163 282 callgsubr
            return
          </CharString>
          <CharString index="544">
            333 callsubr
            -50 -49 return
          </CharString>
          <CharString index="545">
            56 -71 hvcurveto
            -9 callgsubr
            69 vvcurveto
            65 return
          </CharString>
          <CharString index="546">
            -57 -19 -44 -75 -119 hhcurveto
            -54 -48 11 return
          </CharString>
          <CharString index="547">
            -226 hlineto
            -3 callgsubr
            return
          </CharString>
          <CharString index="548">
            -107 callgsubr
            146 hlineto
            return
          </CharString>
          <CharString index="549">
            171 329 callgsubr
            return
          </CharString>
          <CharString index="550">
            61 hstemhm
            74 128 callsubr
            return
          </CharString>
          <CharString index="551">
            rmoveto
            179 callgsubr
            return
          </CharString>
          <CharString index="552">
            109 70 105 hstemhm
            return
          </CharString>
          <CharString index="553">
            1 -10 -13 1 -16 hhcurveto
            -142 -84 -79 -95 -92 78 -97 147 return
          </CharString>
          <CharString index="554">
            392 callsubr
            100 47 397 callgsubr
            return
          </CharString>
          <CharString index="555">
            -12 536 callgsubr
            512 callgsubr
            return
          </CharString>
          <CharString index="556">
            -101 callsubr
            -318 hlineto
            -41 23 -101 callgsubr
            return
          </CharString>
          <CharString index="557">
            169 120 return
          </CharString>
          <CharString index="558">
            -105 hlineto
            -89 -56 return
          </CharString>
          <CharString index="559">
            -221 vlineto
            -52 callsubr
            return
          </CharString>
          <CharString index="560">
            520 105 175 101 hstem
            -407 91 404 120 vstem
            return
          </CharString>
          <CharString index="561">
            78 133.5 12 hstemhm
            202 95.5 return
          </CharString>
          <CharString index="562">
            -36 36 51 -20 59 537 callgsubr
            return
          </CharString>
          <CharString index="563">
            -79 callsubr
            70 -6 rlineto
            return
          </CharString>
          <CharString index="564">
            -21 -29 523 callgsubr
            return
          </CharString>
          <CharString index="565">
            -7 19 vhcurveto
            -4 25 27 -2 27 hhcurveto
            return
          </CharString>
          <CharString index="566">
            hhcurveto
            -58 -10 45 136 hvcurveto
            136 return
          </CharString>
          <CharString index="567">
            180 callsubr
            57 39 46 72 return
          </CharString>
          <CharString index="568">
            105 hstem
            54 508 callsubr
            return
          </CharString>
          <CharString index="569">
            91 430 callsubr
            return
          </CharString>
          <CharString index="570">
            93 49 421 callgsubr
            return
          </CharString>
          <CharString index="571">
            275 106 139 105 hstem
            return
          </CharString>
          <CharString index="572">
            rmoveto
            -295 -70 295 hlineto
            return
          </CharString>
          <CharString index="573">
            46 40 9 15 32 hvcurveto
            return
          </CharString>
          <CharString index="574">
            -63 44 -51 64 -22 vhcurveto
            return
          </CharString>
          <CharString index="575">
            57 39 60 61 58 hhcurveto
            return
          </CharString>
          <CharString index="576">
            105 397 callsubr
            return
          </CharString>
          <CharString index="577">
            99 528 callgsubr
            return
          </CharString>
          <CharString index="578">
            102 57 99 59 105 return
          </CharString>
          <CharString index="579">
            120 180 rmoveto
            return
          </CharString>
          <CharString index="580">
            398 callgsubr
            vstem
            return
          </CharString>
          <CharString index="581">
            177 119 return
          </CharString>
          <CharString index="582">
            hstem
            35 127 return
          </CharString>
          <CharString index="583">
            420 callsubr
            hintmask 1011001111000000
            345 callsubr
            return
          </CharString>
          <CharString index="584">
            -177 -249 3 -15 5 -12 11 -13 rlinecurve
            143 hlineto
            return
          </CharString>
          <CharString index="585">
            hhcurveto
            61 45 17 21 35 426 callsubr
            return
          </CharString>
          <CharString index="586">
            353 87 -68 93 55 105 hstemhm
            28 107 203 120 return
          </CharString>
          <CharString index="587">
            42 30 33 45 48 vvcurveto
            32 -13 27 -19 21 vhcurveto
            endchar
          </CharString>
          <CharString index="588">
            -97 callgsubr
            endchar
          </CharString>
          <CharString index="589">
            hstemhm
            182 102 return
          </CharString>
          <CharString index="590">
            hstemhm
            35 114 return
          </CharString>
          <CharString index="591">
            62 -59 39 -62 -58 -29 -34 -45 -27 10 -25 14 -19 return
          </CharString>
          <CharString index="592">
            -4 0 68 369 68 473 callsubr
            229 return
          </CharString>
          <CharString index="593">
            -116 -120 -59 -135 -120 94 -39 100 -43 return
          </CharString>
          <CharString index="594">
            hhcurveto
            -26 -25 2 3 -22 82 callgsubr
            23 vvcurveto
            return
          </CharString>
          <CharString index="595">
            -24 24 -6 21 14 vvcurveto
            23 31 14 79 vhcurveto
            endchar
          </CharString>
          <CharString index="596">
            hstemhm
            35 127 216 122 return
          </CharString>
          <CharString index="597">
            -72 418 callgsubr
            return
          </CharString>
          <CharString index="598">
            186 105 -56 66 hstemhm
            69 98 return
          </CharString>
          <CharString index="599">
            -13 10 22 -10 47 -15 22 rlinecurve
            return
          </CharString>
          <CharString index="600">
            hvcurveto
            114 callgsubr
            return
          </CharString>
          <CharString index="601">
            vlineto
            -26 71 -20 49 vhcurveto
            238 return
          </CharString>
          <CharString index="602">
            105 hstem
            182 102 return
          </CharString>
          <CharString index="603">
            105 hstemhm
            30 115 return
          </CharString>
          <CharString index="604">
            -83 -55 -56 -72 return
          </CharString>
          <CharString index="605">
            161 120 -18 75 78 120 hintmask 1001010111101000
            return
          </CharString>
          <CharString index="606">
            514 callgsubr
            hvcurveto
            return
          </CharString>
          <CharString index="607">
            520 rmoveto
            132 -97 callgsubr
            return
          </CharString>
          <CharString index="608">
            161 vlineto
            498 -88 callsubr
            return
          </CharString>
          <CharString index="609">
            16 2 6 9 hvcurveto
            254 callsubr
            return
          </CharString>
          <CharString index="610">
            275 callgsubr
            endchar
          </CharString>
          <CharString index="611">
            -55 -22 -26 -51 -48 vvcurveto
            return
          </CharString>
          <CharString index="612">
            83 125 298 80 return
          </CharString>
          <CharString index="613">
            105 hstem
            475 callgsubr
            return
          </CharString>
          <CharString index="614">
            446 callgsubr
            vhcurveto
            return
          </CharString>
          <CharString index="615">
            121 161 120 return
          </CharString>
          <CharString index="616">
            vvcurveto
            297 callsubr
            return
          </CharString>
          <CharString index="617">
            -82 149 80 78 80 hstem
            50 408 vstem
            return
          </CharString>
          <CharString index="618">
            523 callgsubr
            -2 6 8 -1 return
          </CharString>
          <CharString index="619">
            231 88 26 102 73 105 hstemhm
            184 102 return
          </CharString>
          <CharString index="620">
            -23 rlineto
            -13 -1 -43 32 -4 vhcurveto
            43 -5 rlineto
            return
          </CharString>
          <CharString index="621">
            -135 -35 -49 -48 -36 21 -44 39 -41 hvcurveto
            return
          </CharString>
          <CharString index="622">
            70 128 -20 hstem
            86 122 vstem
            208 return
          </CharString>
          <CharString index="623">
            345 callgsubr
            527 callgsubr
            return
          </CharString>
          <CharString index="624">
            hlineto
            -37 -174 rlineto
            92 hlineto
            37 174 rlineto
            return
          </CharString>
          <CharString index="625">
            hlineto
            34 160 rlineto
            -92 hlineto
            -34 -160 rlineto
            return
          </CharString>
          <CharString index="626">
            1 -50 -17 callgsubr
            endchar
          </CharString>
          <CharString index="627">
            68.5 -49 68 return
          </CharString>
          <CharString index="628">
            hmoveto
            408 80 -408 hlineto
            return
          </CharString>
          <CharString index="629">
            92 358 70 128 -20 return
          </CharString>
          <CharString index="630">
            -16 67 -66 87 367 81 return
          </CharString>
          <CharString index="631">
            19 6 39 29 11 21 rrcurveto
            return
          </CharString>
          <CharString index="632" raw="1">
            391b5078 ada4bd0b  
          </CharString>
          <CharString index="633">
            78 90 -81 108 return
          </CharString>
          <CharString index="634">
            31 -1 -3 32 hvcurveto
            return
          </CharString>
          <CharString index="635">
            105 hstemhm
            379 99 return
          </CharString>
          <CharString index="636">
            105 hstemhm
            75 120 return
          </CharString>
          <CharString index="637">
            1 hvcurveto
            73 -6 rlineto
            return
          </CharString>
          <CharString index="638">
            hstem
            359 callsubr
            return
          </CharString>
          <CharString index="639">
            -54 372 callgsubr
            return
          </CharString>
          <CharString index="640">
            81 186 88 return
          </CharString>
          <CharString index="641">
            187 117 return
          </CharString>
          <CharString index="642">
            -180 155 return
          </CharString>
          <CharString index="643">
            -590 829 89 hstem
            -119 76 vstem
            return
          </CharString>
          <CharString index="644">
            25 26 -18 19 -26 -25 -19 -19 -26 vhcurveto
            return
          </CharString>
          <CharString index="645">
            536 callgsubr
            402 callsubr
            36 103 return
          </CharString>
          <CharString index="646">
            -107 callgsubr
            427 hlineto
            return
          </CharString>
          <CharString index="647">
            -215 -90 787 hstem
            20 335 vstem
            return
          </CharString>
          <CharString index="648">
            427 callgsubr
            -72 85 return
          </CharString>
          <CharString index="649">
            -91 callsubr
            -82 6 rlineto
            return
          </CharString>
          <CharString index="650">
            132 callgsubr
            13 callsubr
            return
          </CharString>
          <CharString index="651">
            105 -56 61 hstemhm
            return
          </CharString>
          <CharString index="652">
            hstemhm
            35 130 return
          </CharString>
        <CharString name=".notdef">
          -72 0 52 597 52 hstem
          4 55 400 55 vstem
          4 hmoveto
          510 701 -510 hlineto
          55 -52 rmoveto
          400 -597 -400 hlineto
          200 250 rmoveto
          105 -209 rlineto
          60 hlineto
          -135 254 135 261 rlineto
          -60 hlineto
          -100 -206 rlineto
          -4 hlineto
          -105 206 rlineto
          -60 hlineto
          134 -255 -134 -260 rlineto
          60 hlineto
          100 209 rlineto
          endchar
        </CharString>
        <CharString name="A">
          516 callsubr
          239 281 -90 callsubr
        </CharString>
        <CharString name="AE">
          314 0 68 -68 75 216 67 256.5 70.5 hstemhm
          442 125 217.5 68.5 -48 68 hintmask 01111010
          315 358 rmoveto
          121 257 6 -1 rlineto
          -256 vlineto
          359 -279 rmoveto
          362 callsubr
          hintmask 10111100
          213 -3 9 -118 rlineto
          10 -1 54 -4 44 vvcurveto
          151 -458 vlineto
          -299 -616 -39 -2 rlineto
          hintmask 01111010
          -49 -3 6 -54 -1 -10 rrcurveto
          201 -91 callsubr
          hintmask 10111010
          -79 6 104 220 rlineto
          158 -222 hlineto
          -29 -2 rlineto
          hintmask 01111010
          296 callgsubr
          504 163 285 callsubr
        </CharString>
        <CharString name="Aacute">
          516 callsubr
          503 842 -92 callsubr
          -57 -451 -90 callsubr
        </CharString>
        <CharString name="Abreve">
          345 callgsubr
          458 85 527 callgsubr
          466 906 rmoveto
          -28 -12 -27 -54 -89 hhcurveto
          -39 callgsubr
          -263 -605 -90 callsubr
        </CharString>
        <CharString name="Acircumflex">
          345 callgsubr
          528 84 527 callgsubr
          336 809 -87 callsubr
          43 -442 -90 callsubr
        </CharString>
        <CharString name="Adieresis">
          345 callgsubr
          473 140 hstem
          165 325 callsubr
          vstem
          426 754 -28 callsubr
          3 -473 -90 callsubr
        </CharString>
        <CharString name="Agrave">
          516 callsubr
          266 910 28 callgsubr
          -194 -492 -90 callsubr
        </CharString>
        <CharString name="Amacron">
          345 callgsubr
          477 70 527 callgsubr
          483 828 465 callsubr
          -244 -477 -90 callsubr
        </CharString>
        <CharString name="Aogonek">
          70 -184 53 131 68 146 67 hstem
          485 77 vstem
          239 281 rmoveto
          74 253 69 -253 rlineto
          193 -210 rmoveto
          -188 614 -40 3 -21 1 -40 -4 rlinecurve
          -192 -616 -37 -92 callgsubr
          201 100 callgsubr
          42 143 rlineto
          180 hlineto
          40 -145 rlineto
          -1 52 callsubr
          178 hlineto
          -33 -25 -26 -35 -45 -22 callsubr
          38 17 26 32 19 hvcurveto
          38 8 -3 47 -1 9 rrcurveto
          endchar
        </CharString>
        <CharString name="Aring">
          345 callgsubr
          446 48 85 49 hstem
          244 53 85 52 vstem
          339 860 229 callgsubr
          -98 -446 -90 callsubr
        </CharString>
        <CharString name="Atilde">
          345 callgsubr
          461 534 callgsubr
          13 632 hintmask 11101000
          479 882 rmoveto
          -29 -7 -23 -22 -35 -55 -25 59 -62 hhcurveto
          hintmask 11011000
          197 callsubr
          hintmask 11101000
          41 32 -52 72 hhcurveto
          66 34 44 87 11 hvcurveto
          -272 -592 -90 callsubr
        </CharString>
        <CharString name="B">
          2 0 68 -68 71 251 60 239 64 hstemhm
          114 125 171 130 -98 128 hintmask 01111010
          239 72 rmoveto
          250 33 vlineto
          108 1 62 -36 -92 vvcurveto
          -76 -47 -49 -108 1 vhcurveto
          -7 552 rmoveto
          hintmask 10111100
          71 5 59 -29 -92 vvcurveto
          -77 -39 -48 -111 vhcurveto
          -21 239 3 hlineto
          -162 64 rmoveto
          -37 -3 -54 -10 530 callsubr
          -545 vlineto
          -32 -4 rlineto
          hintmask 01111010
          -26 -3 -13 -17 -1 -46 rrcurveto
          270 hlineto
          170 88 80 129 92 -67 47 -88 12 hvcurveto
          hintmask 01111100
          84 29 41 60 76 vvcurveto
          76 -56 84 -177 vhcurveto
          endchar
        </CharString>
        <CharString name="C">
          358 callgsubr
          370 700 rmoveto
          80 callsubr
          36 callsubr
          hvcurveto
          endchar
        </CharString>
        <CharString name="CR">
          -590 endchar
        </CharString>
        <CharString name="Cacute">
          358 callgsubr
          370 700 rmoveto
          80 callsubr
          36 callsubr
          hvcurveto
          144 142 63 callsubr
        </CharString>
        <CharString name="Ccaron">
          358 callgsubr
          520 867 -71 callsubr
          171 -606 rmoveto
          36 callsubr
          80 callsubr
          endchar
        </CharString>
        <CharString name="Ccedilla">
          12 -205 55 64 40 32 88 540 86 545 callsubr
          193 80 28 100 hintmask 11111100
          289 -86 rmoveto
          -4 callsubr
          8 32 rlineto
          120 8 90 62 47 vvcurveto
          11 -6 15 -10 6 vhcurveto
          -28 -37 -66 -33 -80 hhcurveto
          -150 -58 95 178 152 66 115 127 hvcurveto
          hintmask 11111110
          74 34 -47 -82 hvcurveto
          60 40 29 55 70 -76 61 -120 -226 -109 -154 -211 -208 90 -130 183 -11 hvcurveto
          endchar
        </CharString>
        <CharString name="Ccircumflex">
          12 -15 89 540 86 109 84 hstem
          35 130 301 100 vstem
          347 809 -87 callsubr
          349 -588 rmoveto
          36 callsubr
          80 callsubr
          endchar
        </CharString>
        <CharString name="Cdotaccent">
          12 -15 89 540 86 46 148 hstem
          35 130 114 148 39 100 vstem
          353 746 -37 callgsubr
          17 -46 rmoveto
          80 callsubr
          36 callsubr
          hvcurveto
          endchar
        </CharString>
        <CharString name="D">
          122 0 68 -68 71 545 367 callsubr
          hintmask 01111000
          237 73 rmoveto
          541 74 callgsubr
          hlineto
          hintmask 10111000
          -544 vlineto
          -36 -4 rlineto
          hintmask 01111000
          123 callgsubr
        </CharString>
        <CharString name="Dcaron">
          122 0 68 -68 71 545 367 callsubr
          hintmask 01111000
          497 867 -71 callsubr
          -125 -668 rmoveto
          541 74 callgsubr
          hlineto
          hintmask 10111000
          -544 vlineto
          -36 -4 rlineto
          hintmask 01111000
          123 callgsubr
        </CharString>
        <CharString name="Dcroat">
          49 callgsubr
        </CharString>
        <CharString name="E">
          -31 callgsubr
          endchar
        </CharString>
        <CharString name="Eacute">
          -31 callgsubr
          250 474 63 callsubr
        </CharString>
        <CharString name="Ebreve">
          76 callsubr
          54 85 98 callsubr
          hintmask 01111010
          323 824 rmoveto
          -39 callgsubr
          -36 20 rlineto
          -28 -12 -27 -54 -89 hhcurveto
          -85 -208 rmoveto
          hintmask 10111100
          -49 callsubr
          hintmask 01111010
          -33 callgsubr
          endchar
        </CharString>
        <CharString name="Ecaron">
          76 callsubr
          98 callsubr
          hintmask 01110100
          494 867 -71 callsubr
          112 -662 352 callgsubr
          hintmask 10111000
          -49 callsubr
          hintmask 01110100
          411 callsubr
        </CharString>
        <CharString name="Ecircumflex">
          76 callsubr
          124 84 0 -20 98 callsubr
          hintmask 01110101
          321 809 -87 callsubr
          290 -644 352 callgsubr
          hintmask 10101110
          -49 callsubr
          hintmask 01101101
          411 callsubr
        </CharString>
        <CharString name="Edieresis">
          76 callsubr
          69 140 268 callgsubr
          -88 325 callsubr
          -26.5 520 callsubr
          hintmask 0111100010000000
          530 callgsubr
          hintmask 1011100100000000
          -49 callsubr
          hintmask 0111100010000000
          -33 callgsubr
          hintmask 0111011000000000
          -17 386 -40 callgsubr
          endchar
        </CharString>
        <CharString name="Edotaccent">
          76 callsubr
          61 148 268 callgsubr
          15 148 54.5 520 callsubr
          hintmask 01111001
          530 callgsubr
          hintmask 10111010
          -49 callsubr
          hintmask 01111001
          -33 callgsubr
          hintmask 01111101
          89 378 270 callsubr
        </CharString>
        <CharString name="Egrave">
          -31 callgsubr
          138 364 37 callgsubr
        </CharString>
        <CharString name="Emacron">
          76 callsubr
          73 70 98 callsubr
          hintmask 01111010
          530 callgsubr
          hintmask 10111100
          -49 callsubr
          hintmask 01111010
          -33 callgsubr
          -65 460 274 callsubr
        </CharString>
        <CharString name="Eng">
          107 -187 84 103 351 callgsubr
          hstem
          113 77 121 85 133 78 vstem
          503 685 367 callgsubr
          -396 vlineto
          -313 467 rlineto
          -130 hlineto
          54 callsubr
          -49 -3 6 -54 -1 -10 rlinecurve
          177 260 callgsubr
          435 vlineto
          332 -497 rlineto
          -47 -19 -65 -57 323 callsubr
          99 127 hvcurveto
          577 48 callsubr
        </CharString>
        <CharString name="Eogonek">
          -17 -187 53 134 67 -67 75 539.5 70.5 268 callgsubr
          134 77 6.5 520 callsubr
          hintmask 00111001
          543 hmoveto
          163 vlineto
          188 callgsubr
          -8 -123 361 callsubr
          hintmask 01011010
          -49 callsubr
          hintmask 10111101
          296 callgsubr
          396 hlineto
          -36 -25 -28 -36 -47 -22 callsubr
          40 18 26 34 19 hvcurveto
          endchar
        </CharString>
        <CharString name="Eth">
          49 callgsubr
        </CharString>
        <CharString name="Euro">
          -47 -16 80 142 67 51 67 162 77 hstemhm
          85 115 231 89 -21 14 hintmask 11111100
          377 206 rmoveto
          67 -176 vlineto
          -1 12 0 12 13 vvcurveto
          14 177 67 -171 vlineto
          100 17 48 62 68 hhcurveto
          59 33 -47 -68 hvcurveto
          54 35 29 48 67 -67 48 -100 -138 -95 -91 -148 -28 hvcurveto
          -60 -67 53 hlineto
          -1 -9 0 -8 0 -9 0 -8 0 -9 -8 flex1
          -53 -67 60 hlineto
          -131 24 79 -91 136 hhcurveto
          hintmask 11111010
          93 89 42 61 16 -6 10 -8 5 hvcurveto
          -19 -26 -45 -35 -65 hhcurveto
          -81 -50 54 88 -21 hvcurveto
          endchar
        </CharString>
        <CharString name="F">
          -61 0 68 544.5 72.5 531 callsubr
          207.5 68.5 vstem
          514 685 rmoveto
          -428 hlineto
          -50 4 -55 -10 1 hvcurveto
          72 -6 rlineto
          -545 vlineto
          -29 130 callgsubr
          -92 6 rlineto
          235 vlineto
          180 -10 6 31 -1 41 -6 27 rlinecurve
          -179 -21 rlineto
          242 vlineto
          203 -7 9 -114 rlineto
          10 -1 54 -4 44 vvcurveto
          endchar
        </CharString>
        <CharString name="G">
          393 callgsubr
          545 callsubr
          327 97 -85 100 hintmask 11111000
          395 316 79 callsubr
          hintmask 11110100
          50 callsubr
          hintmask 11111000
          119 103 43 64 35 hvcurveto
          155 6 48 callsubr
        </CharString>
        <CharString name="Gbreve">
          393 callgsubr
          39 85 545 callsubr
          327 97 -85 100 hintmask 11111100
          491 906 rmoveto
          -28 -12 -27 -54 -89 hhcurveto
          -39 callgsubr
          -132 -570 79 callsubr
          hintmask 11111010
          50 callsubr
          hintmask 11111100
          119 103 43 64 35 hvcurveto
          155 6 48 callsubr
        </CharString>
        <CharString name="Gcircumflex">
          393 callgsubr
          109 84 0 -20 545 callsubr
          327 97 -85 100 hintmask 11110110
          361 809 -87 callsubr
          174 -407 79 callsubr
          hintmask 11101101
          50 callsubr
          hintmask 11101110
          119 103 43 64 35 hvcurveto
          155 6 48 callsubr
        </CharString>
        <CharString name="Gdotaccent">
          393 callgsubr
          46 148 545 callsubr
          128 148 51 97 -85 100 hintmask 11111110
          367 746 -37 callgsubr
          28 -430 79 callsubr
          hintmask 11111101
          50 callsubr
          hintmask 11111110
          119 103 43 64 35 hvcurveto
          155 6 48 callsubr
        </CharString>
        <CharString name="H">
          520 callgsubr
          245 68 443 callgsubr
          653 71 65 callsubr
        </CharString>
        <CharString name="Hbar">
          520 callgsubr
          80 70 95 68 443 callgsubr
          238 372 rmoveto
          80 290 -80 vlineto
          125 -301 rmoveto
          381 68 70 -68 94 vlineto
          -64 callgsubr
          5 callsubr
          -92 -290 94 vlineto
          -64 callgsubr
          5 callsubr
          -92 -64 -70 64 -383 242 callgsubr
          234 290 -236 106 callgsubr
          endchar
        </CharString>
        <CharString name="Hcircumflex">
          520 callgsubr
          245 68 124 84 443 callgsubr
          383 809 -87 callsubr
          410 -652 65 callsubr
        </CharString>
        <CharString name="I">
          -239 426 callgsubr
          125 vstem
          239 71 22 callgsubr
          endchar
        </CharString>
        <CharString name="IJ">
          73 -155 84 71 8 -8 351 callgsubr
          268 callgsubr
          38 85 86 125 hintmask 10111010
          239 71 22 callgsubr
          108 620 -21 callgsubr
          73 -6 rlineto
          1 -574 hlineto
          -91 -14 -20 -22 vhcurveto
          hintmask 11011110
          -36 -14 32 47 hvcurveto
          -64 -21 -37 -43 -43 40 -40 66 118 72 110 116 hvcurveto
          545 48 callsubr
        </CharString>
        <CharString name="Iacute">
          -239 426 callgsubr
          125 vstem
          342 842 -92 callsubr
          132 -114 rmoveto
          49 3 -6 54 1 10 rrcurveto
          -25 callsubr
          71 -6 rlineto
          1 -545 hlineto
          113 callsubr
          545 hlineto
          endchar
        </CharString>
        <CharString name="Ibreve">
          -239 235 callgsubr
          54 85 531 callsubr
          vstem
          305 906 rmoveto
          -28 -12 -27 -54 -89 hhcurveto
          -39 callgsubr
          -74 -268 rmoveto
          49 3 -6 54 1 10 rrcurveto
          -25 callsubr
          71 -6 rlineto
          1 -545 hlineto
          113 callsubr
          545 hlineto
          endchar
        </CharString>
        <CharString name="Icircumflex">
          -239 235 callgsubr
          124 84 0 -20 268 callgsubr
          hintmask 11011000
          267 618 rmoveto
          49 3 -6 54 1 10 rrcurveto
          -25 callsubr
          71 -6 rlineto
          1 -545 hlineto
          113 callsubr
          545 hlineto
          -23 271 rmoveto
          -32 8 -12 -1 -32 -7 rrcurveto
          hintmask 11101000
          -139 -126 10 -19 8 -9 17 -10 rlinecurve
          140 86 138 -86 16 9 12 15 9 14 rlinecurve
          endchar
        </CharString>
        <CharString name="Idieresis">
          -239 235 callgsubr
          69 140 hstemhm
          4 141 -32 125 -43 141 hintmask 11110000
          145 824 rmoveto
          38 -31 32 -39 -39 -32 -32 -38 -39 32 -31 39 39 31 31 39 vhcurveto
          122 -206 rmoveto
          49 3 -6 54 1 10 rrcurveto
          hintmask 11101000
          -25 callsubr
          71 -6 rlineto
          1 -545 hlineto
          113 callsubr
          545 hlineto
          hintmask 11100100
          27 278 402 callgsubr
        </CharString>
        <CharString name="Idotaccent">
          -239 235 callgsubr
          61 148 hstemhm
          107 148 -142 125 hintmask 11110000
          181 746 -37 callgsubr
          hintmask 11101000
          58 -675 22 callgsubr
          endchar
        </CharString>
        <CharString name="Igrave">
          -239 426 callgsubr
          125 vstem
          105 910 28 callgsubr
          -33 -702 22 callgsubr
          endchar
        </CharString>
        <CharString name="Imacron">
          -239 235 callgsubr
          73 70 531 callsubr
          vstem
          267 618 rmoveto
          49 3 -6 54 1 10 rrcurveto
          -25 callsubr
          71 -6 rlineto
          1 -545 hlineto
          113 callsubr
          545 hlineto
          -211 212 274 callsubr
        </CharString>
        <CharString name="Iogonek">
          -239 -182 53 129 351 callgsubr
          268 callgsubr
          -93 77 hintmask 01110000
          239 71 rmoveto
          -1 545 hlineto
          -64 callgsubr
          -25 callsubr
          71 -6 rlineto
          1 -545 52 callsubr
          hintmask 11101000
          162 hlineto
          -33 -24 -24 -35 -44 -22 callsubr
          36 15 25 29 19 hvcurveto
          hintmask 01110000
          49 1 -4 54 -1 10 rrcurveto
          endchar
        </CharString>
        <CharString name="Itilde">
          -239 235 callgsubr
          57 89 -37 96 268 callgsubr
          hintmask 11101000
          318 882 rmoveto
          -29 -7 -23 -22 -35 -55 -25 59 -62 hhcurveto
          hintmask 11011000
          197 callsubr
          hintmask 11101000
          41 32 -52 72 hhcurveto
          66 34 44 87 11 hvcurveto
          -83 -255 rmoveto
          49 3 -6 54 1 10 rrcurveto
          -25 callsubr
          71 -6 rlineto
          1 -545 hlineto
          113 callsubr
          545 hlineto
          endchar
        </CharString>
        <CharString name="J">
          -180 -63 84 596 68 hstem
          23 85 86 125 vstem
          165 685 -21 callgsubr
          73 -6 rlineto
          1 -482 hlineto
          -91 -14 -20 -22 323 callsubr
          86 116 hvcurveto
          477 48 callsubr
        </CharString>
        <CharString name="Jcircumflex">
          -180 -63 84 596 68 124 84 0 -20 hstemhm
          23 85 86 125 hintmask 11011100
          193 614 rmoveto
          1 -482 hlineto
          -91 -14 -20 -22 323 callsubr
          86 116 hvcurveto
          477 vlineto
          -64 callgsubr
          -227 53 callgsubr
          173 267 rmoveto
          -32 8 -12 -1 -32 -7 rrcurveto
          hintmask 11101100
          -139 -126 10 -19 8 -9 17 -10 rlinecurve
          140 86 138 -86 16 9 12 15 9 14 rlinecurve
          endchar
        </CharString>
        <CharString name="K">
          51 426 callgsubr
          125 vstem
          423 685 -21 callgsubr
          65 -4 -205 -268 rlineto
          268 vlineto
          -64 callgsubr
          -225 hlineto
          54 callsubr
          -49 -3 6 -54 -1 -10 rlinecurve
          235 542 callsubr
          171 vlineto
          30 37 194 -279 rlineto
          121 hlineto
          42 11 52 13 -8 hvcurveto
          -63 6 435 callgsubr
          endchar
        </CharString>
        <CharString name="L">
          -31 0 211 callgsubr
          216 80 hintmask 01111000
          454 78 163 callsubr
        </CharString>
        <CharString name="Lacute">
          -31 0 211 callgsubr
          216 80 hintmask 01111000
          394 842 -92 callsubr
          267 -654 163 callsubr
        </CharString>
        <CharString name="Lcaron">
          10 0 67 -67 74.5 541.5 69 76 13 268 callgsubr
          158 117 -59 80 hintmask 01111100
          434 529 rmoveto
          53 50 29 85 -3 79 -12 34 -100 7 -18 -23 15 -48 5 -104 -22 -54 rrcurveto
          -8 45 -23 8 5 vhcurveto
          hintmask 01111010
          20 -451 58 callgsubr
          hintmask 10111100
          226 callsubr
          rlineto
          hintmask 01111010
          103 callgsubr
        </CharString>
        <CharString name="Ldot">
          -31 0 67 -67 74.5 204.5 166 171 69 268 callgsubr
          126 166 -76 80 hintmask 01111100
          447 279 rmoveto
          223 callsubr
          hintmask 01111010
          7 -201 58 callgsubr
          hintmask 10111100
          226 callsubr
          rlineto
          hintmask 01111010
          103 callgsubr
        </CharString>
        <CharString name="Lslash">
          -31 0 211 callgsubr
          216 80 hintmask 01111000
          454 78 rmoveto
          -216 -7 rlineto
          244 vlineto
          144 113 -45 55 -99 -77 rlineto
          210 2 vlineto
          49 2 49 2 -6 55 1 10 rlinecurve
          -245 hlineto
          456 callsubr
          -306 vlineto
          -100 -78 46 -55 54 42 rlineto
          hintmask 10111000
          -148 vlineto
          -29 -2 rlineto
          hintmask 01111000
          103 callgsubr
        </CharString>
        <CharString name="M">
          300 344 callgsubr
          10 869 vstem
          806 71 rmoveto
          -41 543 70 6 rlineto
          10 1 4 55 -50 hhcurveto
          -183 hlineto
          -154 -398 -176 398 rlineto
          -171 53 callgsubr
          69 -6 -36 -545 -40 -92 callgsubr
          204 100 callgsubr
          29 464 193 -432 20 -4 24 3 20 6 rlinecurve
          179 446 36 -485 -28 -92 callgsubr
          227 -91 callsubr
          endchar
        </CharString>
        <CharString name="N">
          356 callgsubr
          503 685 -37 callsubr
        </CharString>
        <CharString name="NULL">
          -590 endchar
        </CharString>
        <CharString name="Nacute">
          356 callgsubr
          520 842 -92 callsubr
          190 -47 -37 callsubr
        </CharString>
        <CharString name="Ncaron">
          356 callgsubr
          526 867 -71 callsubr
          112 -56 -37 callsubr
        </CharString>
        <CharString name="Ntilde">
          104 235 callgsubr
          57 534 callgsubr
          113 75 341 75 hintmask 11101100
          496 882 rmoveto
          -29 -7 -23 -22 -35 -55 -25 59 -62 hhcurveto
          hintmask 11011100
          197 callsubr
          hintmask 11101100
          41 32 -52 72 hhcurveto
          66 34 44 87 11 hvcurveto
          -25 -188 -37 callsubr
        </CharString>
        <CharString name="O">
          99 -15 80 555 80 112 callgsubr
          endchar
        </CharString>
        <CharString name="OE">
          334 -15 79 -64 64 -64 75 539.5 70.5 -64 79 545 callsubr
          298 125 217.5 68.5 -48 68 hintmask 0011011010000000
          894 hmoveto
          163 vlineto
          188 callgsubr
          -8 -123 362 callsubr
          hintmask 0011011100000000
          213 -3 9 -118 rlineto
          10 -1 54 -4 44 vvcurveto
          151 -407 vlineto
          hintmask 1000111010000000
          10 -31 -36 5 -40 hhcurveto
          -221 -104 -156 -209 -210 113 -140 179 hvcurveto
          hintmask 0011011010000000
          41 36 5 10 33 hvcurveto
          hintmask 0100111010000000
          -272 347 rmoveto
          163 43 111 136 54 38 -14 -25 27 vhcurveto
          -470 vlineto
          -28 -31 -40 -16 -55 -1 rrcurveto
          -146 2 -29 104 177 vvcurveto
          endchar
        </CharString>
        <CharString name="Oacute">
          99 -15 80 555 80 112 callgsubr
          175 222 63 callsubr
        </CharString>
        <CharString name="Obreve">
          470 callsubr
          39 85 199 callsubr
          354 824 rmoveto
          -39 callgsubr
          -36 20 rlineto
          -28 -12 -27 -54 -89 hhcurveto
          6 -124 -70 callsubr
          endchar
        </CharString>
        <CharString name="Ocircumflex">
          470 callsubr
          109 84 199 callsubr
          352 809 -87 callsubr
          128 -658 rmoveto
          -115 2 -60 97 183 vvcurveto
          296 callsubr
          118 62 -97 -185 -177 -63 -94 -121 -2 vhcurveto
          20 635 rmoveto
          -204 -121 -136 -229 -220 108 -130 184 206 121 136 229 220 -109 130 -185 hvcurveto
          endchar
        </CharString>
        <CharString name="Odieresis">
          470 callsubr
          54 140 545 callsubr
          16 325 callsubr
          11 130 hintmask 11110010
          -21 callsubr
          hintmask 11111110
          -92 134 -40 callgsubr
          endchar
        </CharString>
        <CharString name="Ograve">
          454 callgsubr
          344 620 rmoveto
          118 62 -97 -185 -177 -63 -94 -121 -2 hvcurveto
          -115 2 -60 97 183 vvcurveto
          296 callsubr
          vhcurveto
          16 80 rmoveto
          -204 -121 -136 -229 -220 108 -130 184 206 121 136 229 220 -109 130 -185 hvcurveto
          47 32 37 callgsubr
        </CharString>
        <CharString name="Ohungarumlaut">
          454 callgsubr
          653 811 45 callsubr
          93 -1 -70 callsubr
          endchar
        </CharString>
        <CharString name="Omacron">
          470 callsubr
          58 70 112 callgsubr
          -140 208 274 callsubr
        </CharString>
        <CharString name="Oslash">
          110 357 callsubr
          491 526 rmoveto
          22 -47 11 -62 -79 vvcurveto
          -177 -63 -94 -121 -2 vhcurveto
          -38 1 -33 11 -26 22 rrcurveto
          -50 72 rmoveto
          -19 44 -9 59 73 vvcurveto
          296 callsubr
          37 31 -9 -19 26 vhcurveto
          139 82 rmoveto
          -71 36 -20 -35 rlineto
          17 -37 -42 8 -47 hhcurveto
          -204 -121 -136 -229 -122 33 -94 61 -59 hvcurveto
          -24 -41 70 -38 19 32 rlineto
          -18 38 45 -10 50 hhcurveto
          206 121 136 229 126 -36 97 -65 59 hvcurveto
          endchar
        </CharString>
        <CharString name="Otilde">
          470 callsubr
          42 89 -37 96 545 callsubr
          359 130 hintmask 11011100
          -21 callsubr
          -128 130 521 callgsubr
          hintmask 11101100
          30 callsubr
          hintmask 11011100
          503 callsubr
        </CharString>
        <CharString name="P">
          1 0 68 187 62 306 62 531 callsubr
          203 130 vstem
          304 624 rmoveto
          86 3 51 -52 -92 vvcurveto
          -104 -64 -62 -107 vhcurveto
          -32 305 hlineto
          45 -367 rmoveto
          182 106 87 148 123 -95 72 -163 hvcurveto
          -234 hlineto
          -28 -12 -33 -30 530 callsubr
          -547 262 callgsubr
          238 -91 callsubr
          -85 6 rlineto
          184 vlineto
          endchar
        </CharString>
        <CharString name="Q">
          99 -141 87 45 74 316 callgsubr
          165 347 rmoveto
          296 callsubr
          118 62 -97 -185 -177 -63 -94 -121 -2 vhcurveto
          -115 2 -60 97 183 vvcurveto
          427 -401 rmoveto
          -36 -81 18 27 -77 hvcurveto
          163 28 93 130 201 vvcurveto
          220 -109 130 -185 -204 -121 -136 -229 -187 78 -122 137 -33 vhcurveto
          -48 83 146 -86 83 hhcurveto
          51 38 31 36 21 -3 9 -5 6 hvcurveto
          -11 -17 -24 -5 -10 hhcurveto
          endchar
        </CharString>
        <CharString name="R">
          241 callgsubr
          238 622 -26 callgsubr
        </CharString>
        <CharString name="Racute">
          241 callgsubr
          468 842 -92 callsubr
          -23 -110 -26 callgsubr
        </CharString>
        <CharString name="Rcaron">
          241 callgsubr
          474 867 -71 callsubr
          -101 -119 -26 callgsubr
        </CharString>
        <CharString name="S">
          65 callgsubr
          endchar
        </CharString>
        <CharString name="Sacute">
          65 callgsubr
          159 142 63 callsubr
        </CharString>
        <CharString name="Scaron">
          -57 -15 339 callsubr
          221 93 -73 104 hintmask 11010100
          456 867 -71 callsubr
          -2 -329 503 callgsubr
          hintmask 11011000
          108 callsubr
          hintmask 11100100
          303 callgsubr
          hintmask 11010100
          393 callsubr
          vhcurveto
          endchar
        </CharString>
        <CharString name="Scircumflex">
          -57 -15 76 563 76 109 84 0 -20 hstemhm
          25 106 -76 104 221 93 -73 104 hintmask 11100101
          283 809 -87 callsubr
          176 -311 503 callgsubr
          hintmask 11010110
          108 callsubr
          hintmask 11011001
          303 callgsubr
          hintmask 11100101
          393 callsubr
          vhcurveto
          endchar
        </CharString>
        <CharString name="T">
          46 0 68 542 75 413 callgsubr
          20 685 231 callsubr
          -2 callsubr
        </CharString>
        <CharString name="Tbar">
          46 0 68 542 75 73 70 413 callgsubr
          471 828 465 callsubr
          -451 -73 231 callsubr
          -2 callsubr
        </CharString>
        <CharString name="Tcaron">
          46 0 68 542 75 413 callgsubr
          497 867 -71 callsubr
          -342 -56 231 callsubr
          -2 callsubr
        </CharString>
        <CharString name="Thorn">
          -3 0 68 76 62 293 63 55 68 531 callsubr
          193 128 vstem
          287 499 rmoveto
          91 53 -53 -89 -95 -66 -56 -112 hvcurveto
          -15 293 hlineto
          35 -355 rmoveto
          180 106 80 136 127 -98 75 -167 hvcurveto
          -56 54 34 callgsubr
          -71 6 rlineto
          -1 73 hlineto
          endchar
        </CharString>
        <CharString name="U">
          319 callsubr
          hstem
          83 125 298 8 callgsubr
          endchar
        </CharString>
        <CharString name="Uacute">
          319 callsubr
          hstem
          83 125 298 8 callgsubr
          -152 157 63 callsubr
        </CharString>
        <CharString name="Ubreve">
          319 callsubr
          54 85 489 callgsubr
          342 824 rmoveto
          -39 callgsubr
          -36 20 rlineto
          -28 -12 -27 -54 -89 hhcurveto
          137 -139 -87 callgsubr
          endchar
        </CharString>
        <CharString name="Ucircumflex">
          319 callsubr
          124 84 489 callgsubr
          340 809 -87 callsubr
          279 -38 -87 callgsubr
          endchar
        </CharString>
        <CharString name="Udieresis">
          319 callsubr
          69 140 hstemhm
          83 125 -39 325 callsubr
          5 80 hintmask 11110010
          -31 callsubr
          hintmask 11101100
          -419 69 -40 callgsubr
          endchar
        </CharString>
        <CharString name="Ugrave">
          319 callsubr
          hstem
          83 125 298 8 callgsubr
          -264 47 37 callgsubr
        </CharString>
        <CharString name="Uhungarumlaut">
          319 callsubr
          489 callgsubr
          641 811 45 callsubr
          224 -16 -87 callgsubr
          endchar
        </CharString>
        <CharString name="Umacron">
          319 callsubr
          73 70 hstemhm
          83 125 -16 89 225 80 hintmask 11110100
          479 685 -21 callgsubr
          71 -6 1 -351 rlineto
          -142 -60 -56 -98 -107 -33 68 142 vhcurveto
          341 vlineto
          hintmask 11101100
          -64 callgsubr
          hintmask 11110100
          5 callsubr
          -323 vlineto
          -236 100 -70 147 169 87 92 213 vhcurveto
          104 callgsubr
          hintmask 11101100
          -467 143 274 callsubr
        </CharString>
        <CharString name="Uogonek">
          79 -197 53 129 80 552 68 hstem
          83 125 68 77 153 80 vstem
          479 685 -21 callgsubr
          71 -6 1 -351 rlineto
          -142 -60 -56 -98 -107 -33 68 142 vhcurveto
          341 vlineto
          -64 callgsubr
          5 callsubr
          -323 vlineto
          -236 100 -70 147 vhcurveto
          3 hlineto
          -33 -24 -24 -35 -44 -22 callsubr
          42 20 27 40 20 hvcurveto
          114 28 59 93 175 vvcurveto
          104 callgsubr
          endchar
        </CharString>
        <CharString name="Uring">
          319 callsubr
          42 48 85 49 hstem
          83 125 40 53 85 52 68 8 callgsubr
          -314 224 39 callsubr
        </CharString>
        <CharString name="Utilde">
          319 callsubr
          57 534 callgsubr
          505 callsubr
          hintmask 11011100
          204 750 521 callgsubr
          hintmask 11101100
          30 callsubr
          hintmask 11011100
          275 callgsubr
          309 -77 -87 callgsubr
          endchar
        </CharString>
        <CharString name="V">
          56 21 -21 617 68 hstem
          1 644 vstem
          456 685 rmoveto
          -49 3 -36 callgsubr
          79 -6 -150 -461 -138 463 30 2 48 3 -5 545 callgsubr
          -230 53 callgsubr
          64 -6 200 -614 rlineto
          101 hlineto
          211 616 24 2 49 4 -6 53 1 10 rlinecurve
          endchar
        </CharString>
        <CharString name="W">
          304 callsubr
          799 685 366 callsubr
          hintmask 10110000
          -50 callsubr
        </CharString>
        <CharString name="Wacute">
          304 callsubr
          685 842 -92 callsubr
          321 -47 366 callsubr
          hintmask 10110000
          -50 callsubr
        </CharString>
        <CharString name="Wcircumflex">
          381 0 145 472 68 124 84 hstem
          1 969 vstem
          518 809 -87 callsubr
          421 -38 -21 callgsubr
          70 -6 -50 callsubr
        </CharString>
        <CharString name="Wdieresis">
          381 0 145 -124 -21 617 68 69 140 hstemhm
          347 325 callsubr
          hintmask 01111100
          608 754 -28 callsubr
          381 -69 366 callsubr
          hintmask 10111100
          -50 callsubr
        </CharString>
        <CharString name="Wgrave">
          304 callsubr
          448 910 28 callgsubr
          184 -88 366 callsubr
          hintmask 10110000
          -50 callsubr
        </CharString>
        <CharString name="X">
          99 344 callgsubr
          11 667 vstem
          602 71 rmoveto
          -192 282 188 263 36 2 49 3 -6 545 callgsubr
          -219 53 callgsubr
          82 -6 -129 -197 -135 199 rlineto
          1 hlineto
          32 2 48 3 -5 545 callgsubr
          -253 53 callgsubr
          72 -6 195 -288 -179 -257 -36 -92 callgsubr
          220 -91 callsubr
          -83 6 rlineto
          -1 hlineto
          121 191 132 -193 rlineto
          -2 hlineto
          -32 -2 -48 -3 5 -54 -1 -10 rlinecurve
          256 hlineto
          51 -5 55 10 -1 hvcurveto
          endchar
        </CharString>
        <CharString name="Y">
          45 344 callgsubr
          255 125 vstem
          444 685 -42 callgsubr
        </CharString>
        <CharString name="Yacute">
          45 344 callgsubr
          255 125 vstem
          501 842 -92 callsubr
          150 -47 -42 callgsubr
        </CharString>
        <CharString name="Ycircumflex">
          45 235 callgsubr
          124 84 hstem
          255 125 vstem
          334 809 -87 callsubr
          250 -38 -42 callgsubr
        </CharString>
        <CharString name="Ydieresis">
          45 235 callgsubr
          69 140 hstemhm
          163 141 -49 125 -26 141 hintmask 11110100
          424 754 -28 callsubr
          210 -69 -21 callgsubr
          78 -6 -132 -241 -135 243 rlineto
          2 hlineto
          32 2 48 3 -5 545 callgsubr
          -242 53 callgsubr
          64 -6 rlineto
          hintmask 11101000
          190 -330 rlineto
          -215 vlineto
          113 callsubr
          217 hlineto
          185 328 25 2 49 4 -6 53 1 10 rlinecurve
          endchar
        </CharString>
        <CharString name="Ygrave">
          45 344 callgsubr
          255 125 vstem
          264 910 28 callgsubr
          13 -88 -42 callgsubr
        </CharString>
        <CharString name="Z">
          193 callsubr
          469 87 3 callsubr
        </CharString>
        <CharString name="Zacute">
          193 callsubr
          476 842 -92 callsubr
          200 -645 3 callsubr
        </CharString>
        <CharString name="Zcaron">
          193 callsubr
          482 867 -71 callsubr
          122 -654 3 callsubr
        </CharString>
        <CharString name="Zdotaccent">
          0 0 79.5 526.5 79 61 148 hstem
          65 81.5 94.5 148 92 75 vstem
          315 746 -37 callgsubr
          154 -659 3 callsubr
        </CharString>
        <CharString name="a">
          152 callsubr
          324 95 -49 callgsubr
        </CharString>
        <CharString name="aacute">
          152 callsubr
          415 662 -92 callsubr
          116 -457 -49 callgsubr
        </CharString>
        <CharString name="abreve">
          146 callgsubr
          39 85 191 callsubr
          hintmask 01111101
          378 726 rmoveto
          -28 -12 -27 -54 -89 hhcurveto
          -39 callgsubr
          -90 -611 -4 callgsubr
          hintmask 10111011
          -59 callgsubr
          hintmask 01111101
          58 callsubr
          hintmask 10111101
          101 callsubr
        </CharString>
        <CharString name="acircumflex">
          152 callsubr
          248 629 -87 callsubr
          216 -448 -49 callgsubr
        </CharString>
        <CharString name="acute">
          10 497 callgsubr
          158 249 vstem
          407 662 63 callsubr
        </CharString>
        <CharString name="acute.cap">
          10 497 callgsubr
          158 249 vstem
          407 662 63 callsubr
        </CharString>
        <CharString name="adieresis">
          146 callgsubr
          54 140 hstemhm
          30 127 -96 93 -77 325 callsubr
          -85 122 hintmask 0111100110000000
          338 574 -28 callsubr
          hintmask 0111110001000000
          176 -479 -4 callgsubr
          hintmask 1011101001000000
          -59 callgsubr
          hintmask 0111110001000000
          58 callsubr
          hintmask 1011100001000000
          101 callsubr
        </CharString>
        <CharString name="ae">
          196 -15 81 -81 89 133 68 -30 69 126 80 hstemhm
          30 127 -96 93 170 127 534 callsubr
          hintmask 0101110110000000
          456 314 rmoveto
          82 11 31 44 57 hhcurveto
          47 33 -29 -97 3 hvcurveto
          hintmask 1010110110000000
          -314 -219 rmoveto
          -19 -28 -33 -10 -31 hhcurveto
          -51 -24 25 41 54 43 21 49 22 28 -4 -9 25 hvcurveto
          75 vmoveto
          4 -26 -28 2 -27 hhcurveto
          -158 -55 -70 -81 -87 64 -52 93 69 65 28 50 50 hvcurveto
          hintmask 0101101110000000
          -53 40 63 -25 77 hhcurveto
          119 75 60 40 14 -9 22 -11 8 hvcurveto
          -33 -41 -41 -22 -61 hhcurveto
          -102 -29 59 101 hvcurveto
          11 304 57 vlineto
          118 2 -53 100 -140 hhcurveto
          -61 -58 -19 -41 -42 hvcurveto
          45 -39 -61 15 -62 hhcurveto
          -108 -72 -47 -63 -46 40 -22 53 5 hvcurveto
          53 29 40 56 53 32 -35 -92 vhcurveto
          endchar
        </CharString>
        <CharString name="agrave">
          152 callsubr
          178 730 28 callgsubr
          -21 -498 -49 callgsubr
        </CharString>
        <CharString name="amacron">
          146 callgsubr
          58 70 191 callsubr
          hintmask 01111101
          395 648 465 callsubr
          -71 -483 -4 callgsubr
          hintmask 10111011
          -59 callgsubr
          hintmask 01111101
          58 callsubr
          hintmask 10111101
          101 callsubr
        </CharString>
        <CharString name="ampersand">
          154 -18 84 -83 100 185.5 66.5 280 60 hstemhm
          35 115 -65 112 138 106 hintmask 10111010
          283 66 rmoveto
          -82 -51 43 68 39 17 43 33 32 hvcurveto
          8 -9 8 -9 9 -10 55 -61 57 -58 58 -47 rrcurveto
          -22 -35 -39 -9 -38 hhcurveto
          hintmask 10110110
          -13 549 rmoveto
          31 34 -22 -63 -53 -23 -55 -51 -31 hvcurveto
          -46 62 -18 43 36 vvcurveto
          51 36 32 37 vhcurveto
          352 -345 rmoveto
          44 3 -7 52 1 10 rrcurveto
          -172 hlineto
          -47 4 -54 -10 1 hvcurveto
          66 -5 -11 -38 -14 -31 -17 -26 rlinecurve
          -54 44 -59 58 -55 66 -6 7 rcurveline
          75 27 70 63 94 vvcurveto
          91 -67 54 -101 -121 -67 -78 -88 -49 21 -49 52 -69 vhcurveto
          hintmask 10111010
          -93 -51 -30 -71 -64 vvcurveto
          -98 72 -76 146 77 70 21 46 58 vhcurveto
          hintmask 01111010
          -41 61 59 -25 53 hhcurveto
          73 27 49 39 17 -5 15 -9 8 hvcurveto
          -17 -11 -36 -11 -25 hhcurveto
          -30 -41 16 29 -45 hvcurveto
          25 39 20 46 15 55 rrcurveto
          endchar
        </CharString>
        <CharString name="aogonek">
          -69 -186 53 118 81 141 68 165 80 191 callsubr
          -90 77 hintmask 11111010
          324 95 -4 callgsubr
          122 -141 rmoveto
          267 vlineto
          142 -81 58 -125 vhcurveto
          hintmask 11110110
          -107 -72 -47 -63 -47 42 -21 51 5 hvcurveto
          61 40 32 39 59 32 -31 -96 vhcurveto
          -44 vlineto
          4 -26 -28 2 -28 hhcurveto
          hintmask 11111001
          58 callsubr
          11 -25 21 -19 38 -6 rrcurveto
          -27 -24 -19 -31 -39 -22 callsubr
          33 12 23 24 18 hvcurveto
          hintmask 11111010
          33 10 9 24 21 vvcurveto
          endchar
        </CharString>
        <CharString name="approxequal">
          10 164 89 -37 96 31 534 callgsubr
          100 400 hintmask 10011000
          139 351 rmoveto
          26 10 25 18 29 hhcurveto
          hintmask 10101000
          220 callsubr
          hintmask 01011000
          -67 -44 -54 -74 -12 hvcurveto
          39 -191 rmoveto
          26 10 25 18 29 hhcurveto
          hintmask 10101000
          220 callsubr
          hintmask 01101000
          -67 -44 -54 -74 -12 hvcurveto
          endchar
        </CharString>
        <CharString name="aring">
          146 callgsubr
          27 48 85 49 hstemhm
          30 127 -96 93 2 53 85 52 -22 122 hintmask 0111110011000000
          251 680 229 callgsubr
          hintmask 0111011000100000
          75 -452 -4 callgsubr
          hintmask 1011010100100000
          -59 callgsubr
          hintmask 0111011000100000
          58 callsubr
          hintmask 1011010010100000
          101 callsubr
        </CharString>
        <CharString name="asciicircum">
          -72 204 449 hstem
          60 398 vstem
          458 204 rmoveto
          -165 449 rlineto
          -58 hlineto
          -175 -449 rlineto
          106 hlineto
          95 250 91 -250 rlineto
          endchar
        </CharString>
        <CharString name="asciitilde">
          10 222 534 callgsubr
          100 400 hintmask 01100000
          139 230 rmoveto
          26 10 25 18 29 hhcurveto
          hintmask 10100000
          220 callsubr
          hintmask 01100000
          -67 -44 -54 -74 -12 hvcurveto
          endchar
        </CharString>
        <CharString name="asterisk">
          -118 728 7 hstem
          40 392 vstem
          262 572 rmoveto
          31 155 -26 9 -66 4 -25 -12 rlinecurve
          35 -157 -139 77 rlineto
          -19 -21 -13 -63 -31 vvcurveto
          160 -8 -117 -103 14 -25 54 -36 29 -7 rlinecurve
          56 139 57 -141 30 7 52 37 16 25 rlinecurve
          -119 104 160 8 rlineto
          28 -15 63 -17 23 vhcurveto
          endchar
        </CharString>
        <CharString name="at">
          450 -166 70 149 71 -71 82 285 73 121 70 hstemhm
          85 78 718 74 hintmask 10111110
          573 173 rmoveto
          -25 -32 -25 -13 -32 hhcurveto
          -64 -23 50 88 13 hvcurveto
          60 9 27 87 79 hhcurveto
          33 27 -15 -17 18 hvcurveto
          12 85 rmoveto
          -1 vlineto
          14 -29 -30 7 -37 hhcurveto
          -144 -73 -106 -133 -15 hvcurveto
          -155 -17 80 -46 88 hhcurveto
          55 38 18 27 35 hvcurveto
          hintmask 11011110
          -34 5 29 -11 55 hhcurveto
          180 120 124 185 193 -163 129 -244 -278 -185 -174 -262 -248 182 -166 274 100 80 24 36 67 hvcurveto
          -12 63 rlineto
          -40 -61 -89 -13 -71 hhcurveto
          -235 -157 138 206 220 154 146 232 199 133 -107 -161 -133 -78 -89 -116 hvcurveto
          50 356 rlineto
          endchar
        </CharString>
        <CharString name="atilde">
          146 callgsubr
          42 89 -37 96 191 callsubr
          hintmask 0111100010000000
          391 702 rmoveto
          -29 -7 -23 -22 -35 -55 -25 59 -62 hhcurveto
          hintmask 0111010010000000
          197 callsubr
          hintmask 0111101010000000
          41 32 -52 72 hhcurveto
          66 34 44 87 11 hvcurveto
          -99 -598 -4 callgsubr
          hintmask 1011100110000000
          -59 callgsubr
          hintmask 0111101010000000
          58 callsubr
          hintmask 1011100010000000
          101 callsubr
        </CharString>
        <CharString name="b">
          -3 -15 125 callgsubr
          609 vmoveto
          -198 -60 callsubr
          -587 vlineto
          122 -38 rlineto
          -11 26 29 -6 40 hhcurveto
          170 80 127 164 -2 hvcurveto
          184 -3 -104 60 -96 hhcurveto
          -62 -42 -21 -30 -36 hvcurveto
          endchar
        </CharString>
        <CharString name="backslash">
          540 callsubr
          355 -90 rmoveto
          -236 787 rlineto
          -99 hlineto
          236 -787 rlineto
          endchar
        </CharString>
        <CharString name="bar">
          -193 927 hstem
          100 96 vstem
          100 -193 rmoveto
          96 927 -96 hlineto
          endchar
        </CharString>
        <CharString name="braceleft">
          -220 -184 66 786 66 hstemhm
          50 115 -64 101 -85 102 hintmask 11001000
          255 734 rmoveto
          hintmask 11010000
          -92 -62 -53 -79 hvcurveto
          hintmask 11001000
          -67 16 -69 -75 vvcurveto
          -25 -9 -28 -14 -16 vhcurveto
          hintmask 11100000
          -7 -9 -18 -11 -19 -8 rrcurveto
          -38 vlineto
          hintmask 11001000
          19 -8 18 -11 7 -9 rrcurveto
          14 -16 9 -27 -23 -81 -16 -68 -65 vvcurveto
          hintmask 11010000
          -79 58 -53 87 37 42 5 8 25 vhcurveto
          -2 55 rlineto
          -1 -7 -12 -1 -11 hhcurveto
          -70 -46 28 43 hvcurveto
          hintmask 11001000
          50 17 83 61 vvcurveto
          63 -22 49 -32 11 vhcurveto
          10 vlineto
          32 11 22 49 63 91 -17 53 50 vvcurveto
          hintmask 11010000
          43 46 28 70 11 12 -1 -1 7 vhcurveto
          2 55 rlineto
          hintmask 11001000
          8 -13 -38 5 -44 hhcurveto
          endchar
        </CharString>
        <CharString name="braceright">
          -220 -184 66 786 66 hstemhm
          151 102 -85 101 -64 115 hintmask 11100000
          22 666 rmoveto
          1 7 12 1 11 hhcurveto
          hintmask 11010000
          70 46 -28 -43 hvcurveto
          hintmask 11100000
          -50 -17 -53 -91 vvcurveto
          -63 22 -49 32 -11 vhcurveto
          -10 vlineto
          -32 -11 -22 -49 -63 -61 17 -83 -50 vvcurveto
          hintmask 11010000
          -43 -46 -28 -70 -11 -12 1 1 -7 vhcurveto
          -2 -55 rlineto
          -8 25 42 -5 37 hhcurveto
          87 58 53 79 hvcurveto
          hintmask 11100000
          65 -16 68 81 vvcurveto
          23 9 27 14 16 vhcurveto
          hintmask 11001000
          7 9 18 11 19 8 rrcurveto
          38 vlineto
          hintmask 11100000
          -19 8 -18 11 -7 9 rrcurveto
          -14 16 -9 28 25 75 16 69 67 vvcurveto
          hintmask 11010000
          79 -62 53 -92 -44 -38 -5 -8 -13 vhcurveto
          endchar
        </CharString>
        <CharString name="bracketleft">
          -307 -155 65 759 65 hstem
          80 96 vstem
          176 669 rmoveto
          77 65 -173 -889 173 65 -77 hlineto
          endchar
        </CharString>
        <CharString name="bracketright">
          -307 -155 65 759 65 hstem
          107 96 vstem
          107 -90 rmoveto
          -77 -65 173 889 -173 -65 77 hlineto
          endchar
        </CharString>
        <CharString name="breve">
          10 559 85 hstem
          121 330 vstem
          287 644 rmoveto
          -39 callgsubr
          -36 20 rlineto
          -28 -12 -27 -54 -89 hhcurveto
          endchar
        </CharString>
        <CharString name="breve.cap">
          10 559 85 hstem
          121 330 vstem
          287 644 rmoveto
          -39 callgsubr
          -36 20 rlineto
          -28 -12 -27 -54 -89 hhcurveto
          endchar
        </CharString>
        <CharString name="brokenbar">
          -193 927 hstem
          100 96 vstem
          196 182 rmoveto
          -96 -375 96 hlineto
          -96 552 rmoveto
          96 375 -96 hlineto
          endchar
        </CharString>
        <CharString name="bullet">
          -104 248 246 hstem
          120 246 vstem
          243 248 rmoveto
          70 53 53 70 68 -53 55 -70 -68 -55 -55 -68 -70 55 -53 68 hvcurveto
          endchar
        </CharString>
        <CharString name="c">
          250 callgsubr
          162 callsubr
          endchar
        </CharString>
        <CharString name="cacute">
          250 callgsubr
          440 662 -92 callsubr
          51 -32 rmoveto
          112 callsubr
          hvcurveto
          42 callsubr
          vhcurveto
          endchar
        </CharString>
        <CharString name="caron">
          204 callsubr
        </CharString>
        <CharString name="caron.cap">
          204 callsubr
        </CharString>
        <CharString name="ccaron">
          250 callgsubr
          446 687 -71 callsubr
          122 -432 rmoveto
          42 callsubr
          112 callsubr
          vhcurveto
          endchar
        </CharString>
        <CharString name="ccedilla">
          -118 -205 55 64 40 32 89 363 82 hstemhm
          35 127 115 80 3 87 hintmask 11111100
          208 -86 rmoveto
          -4 callsubr
          8 32 rlineto
          99 6 75 56 37 vvcurveto
          11 -8 24 -14 9 vhcurveto
          -31 -35 -41 -23 -52 hhcurveto
          -110 -33 83 103 111 38 66 70 hvcurveto
          hintmask 11111010
          65 24 -58 -49 1 hvcurveto
          34 -4 53 18 62 vvcurveto
          71 -69 42 -94 -149 -100 -106 -173 -145 71 -94 121 -15 vhcurveto
          endchar
        </CharString>
        <CharString name="ccircumflex">
          250 callgsubr
          273 629 -87 callsubr
          300 -414 rmoveto
          42 callsubr
          112 callsubr
          vhcurveto
          endchar
        </CharString>
        <CharString name="cdotaccent">
          -118 -15 90 363 82 46 148 hstemhm
          35 127 43 148 7 87 hintmask 11010100
          162 callsubr
          hintmask 11111000
          -5 46 270 callsubr
        </CharString>
        <CharString name="cedilla">
          10 -205 55 64 104 hstem
          307 80 vstem
          319 18 rmoveto
          -54 hlineto
          -27 -104 rlineto
          -4 callsubr
          endchar
        </CharString>
        <CharString name="cedilla.cap">
          10 -205 55 64 104 hstem
          307 80 vstem
          319 18 rmoveto
          -54 hlineto
          -27 -104 rlineto
          -4 callsubr
          endchar
        </CharString>
        <CharString name="cent">
          -68 -124 8 101 89 364 81 91 8 hstem
          50 127 71.5 80.5 46 87 vstem
          334 610 rmoveto
          -19 10 -54 1 -17 -11 8 -93 rcurveline
          -128 -18 -74 -99 -170 vvcurveto
          -135 75 -101 128 -9 vhcurveto
          540 callgsubr
          104 rlineto
          85 14 63 44 37 vvcurveto
          7 -8 25 -14 9 vhcurveto
          -31 -35 -42 -19 -56 hhcurveto
          -108 -32 82 114 99 38 69 70 65 24 -58 -49 1 hvcurveto
          33 -4 54 17 64 vvcurveto
          63 -54 40 -83 8 vhcurveto
          endchar
        </CharString>
        <CharString name="circumflex">
          10 543 170 hstem
          94 350 vstem
          309 707 35 callgsubr
        </CharString>
        <CharString name="circumflex.cap">
          10 543 170 hstem
          94 350 vstem
          309 707 35 callgsubr
        </CharString>
        <CharString name="colon">
          -324 -16 166 167 166 hstem
          50 166 vstem
          133 -16 rmoveto
          223 callsubr
          333 vmoveto
          223 callsubr
          endchar
        </CharString>
        <CharString name="comma">
          -334 -14 462 callgsubr
          128 141 67 callgsubr
        </CharString>
        <CharString name="copyright">
          126 2 80 76 59 194 57 72 80 hstem
          50 89 91 83 110 51 104 88 vstem
          359 620 rmoveto
          -193 -116 -132 -179 -189 122 -118 187 185 122 123 185 190 -128 120 -179 hvcurveto
          -80 vmoveto
          129 90 -85 -145 -141 -85 -87 -134 -136 -84 87 140 139 81 92 139 hvcurveto
          115 -138 rmoveto
          40 -39 26 -59 -89 -57 -58 -109 -83 52 -60 80 65 52 32 25 5 -4 21 -9 6 vhcurveto
          -18 -20 -24 -12 -32 hhcurveto
          -59 -18 45 63 52 22 34 35 38 15 -30 -22 hvcurveto
          19 -3 32 10 36 vvcurveto
          endchar
        </CharString>
        <CharString name="currency">
          12 93 90 205 91 hstem
          105 94 199 93 vstem
          491 285 rmoveto
          45 -11 39 -20 31 vhcurveto
          97 79 -15 19 -39 40 -17 9 rlinecurve
          -81 -95 rlineto
          18 -29 -37 9 -40 hhcurveto
          -39 -35 -9 -16 -30 hvcurveto
          -79 93 -17 -9 -39 -40 -15 -19 rlinecurve
          95 -76 rlineto
          -23 -32 -12 -40 -46 vvcurveto
          -46 12 -41 23 -30 vhcurveto
          -95 -77 15 -19 39 -40 17 -10 rlinecurve
          81 95 rlineto
          -16 29 35 -8 39 hhcurveto
          39 36 8 18 29 hvcurveto
          82 -97 17 10 39 40 15 19 rlinecurve
          -97 79 rlineto
          20 31 11 39 45 vvcurveto
          -193 -102 rmoveto
          -60 -39 42 60 62 39 41 60 58 42 -41 -62 -60 -42 -42 -58 hvcurveto
          endchar
        </CharString>
        <CharString name="d">
          -13 523 callsubr
          489 callsubr
          hintmask 01111000
          205 callsubr
          hintmask 10111000
          122 -345 rmoveto
          661 24 callgsubr
          -124 vlineto
          11 -26 -29 6 -40 hhcurveto
          -170 -80 -127 -164 2 hvcurveto
          hintmask 01111000
          -184 3 104 -60 96 hhcurveto
          64 43 23 31 37 hvcurveto
          hintmask 10111000
          414 callgsubr
          endchar
        </CharString>
        <CharString name="dagger">
          -90 466.5 454 callsubr
          -87 79 131.5 19 hintmask 11101000
          296 538 rmoveto
          373 callgsubr
          hintmask 11011000
          126 12 11 -635 20 -5 28 0 20 5 rlinecurve
          11 636 141 492 callsubr
          endchar
        </CharString>
        <CharString name="daggerdbl">
          -90 266.5 78 122 454 callsubr
          -91.5 87.5 -81.5 75 134 19 hintmask 11101010
          292 338 rmoveto
          3 135 141 492 callsubr
          hintmask 11110010
          -125 -13 373 callgsubr
          hintmask 11101010
          126 12 2 -134 -143 13 -10 -22 10 -47 15 -22 rlinecurve
          hintmask 11100110
          129 13 8 -436 20 -5 27 0 20 5 rlinecurve
          8 436 145 492 callsubr
          endchar
        </CharString>
        <CharString name="dcaron">
          111 523 callsubr
          241 12 489 callsubr
          68 103 hintmask 01111110
          205 callsubr
          122 316 479 callgsubr
          -124 vlineto
          11 -26 -29 6 -40 306 callgsubr
          64 43 23 31 37 hvcurveto
          hintmask 10111110
          414 callgsubr
          -67 6 rlineto
          171 691 rmoveto
          277 callgsubr
          45 52 29 76 -3 79 rrcurveto
          endchar
        </CharString>
        <CharString name="dcroat">
          0 523 callsubr
          19 60 489 callsubr
          hintmask 01011100
          378 117 rmoveto
          -30 -33 -29 -15 -37 hhcurveto
          -79 -38 68 112 hvcurveto
          hintmask 01111100
          90 19 97 94 42 37 -20 -20 24 vhcurveto
          hintmask 01011100
          202 140 rmoveto
          60 -80 116 24 callgsubr
          -28 -72 -60 72 vlineto
          hintmask 01111100
          -36 vlineto
          11 -26 -29 6 -40 306 callgsubr
          64 43 23 31 37 hvcurveto
          hintmask 10011100
          414 callgsubr
          -67 6 rlineto
          485 vlineto
          endchar
        </CharString>
        <CharString name="degree">
          -200 449 70 119 71 hstem
          60 78 114 78 vstem
          60 579 rmoveto
          -77 56 -53 79 78 57 54 77 78 -56 51 -78 -78 -58 -52 -78 vhcurveto
          78 1 rmoveto
          34 22 24 35 34 23 -24 -35 -34 -22 -26 -35 -34 -23 26 35 vhcurveto
          endchar
        </CharString>
        <CharString name="dieresis">
          10 574 140 hstem
          89 325 callsubr
          vstem
          160 245 callsubr
          endchar
        </CharString>
        <CharString name="dieresis.cap">
          10 574 140 hstem
          89 325 callsubr
          vstem
          160 245 callsubr
          endchar
        </CharString>
        <CharString name="divide">
          -82 177 158 vstem
          50 308 507 callgsubr
          -202 -295 155 callgsubr
          352 vmoveto
          411 callgsubr
        </CharString>
        <CharString name="dollar">
          -88 -123 8 101 73 500 70 99 8 hstemhm
          45 94 -75 98 38.5 80.5 69 83 -76 100 hintmask 1111011010000000
          286 728 rmoveto
          -19 10 -54 1 -17 -11 10 -108 rcurveline
          -79 -21 -63 -57 -101 vvcurveto
          -99 84 -35 85 -37 vhcurveto
          59 -25 65 -33 -75 vvcurveto
          -54 -42 -24 -65 vhcurveto
          hintmask 1111101010000000
          -76 -35 32 88 hvcurveto
          -67 -27 -34 -45 -73 82 -34 78 -7 hvcurveto
          540 callgsubr
          103 rlineto
          111 16 70 78 108 vvcurveto
          92 -52 35 -109 50 vhcurveto
          hintmask 1111011100000000
          -85 37 -49 20 58 vvcurveto
          44 33 33 54 71 30 -37 -75 vhcurveto
          50 -8 33 33 45 vvcurveto
          88 -92 24 -64 vhcurveto
          endchar
        </CharString>
        <CharString name="dotaccent">
          -270 566 148 hstem
          87 148 vstem
          161 566 270 callsubr
        </CharString>
        <CharString name="dotaccent.cap">
          -270 566 148 hstem
          87 148 vstem
          161 566 270 callsubr
        </CharString>
        <CharString name="dotlessi">
          -271 0 68 218 callsubr
          endchar
        </CharString>
        <CharString name="dotlessj">
          502 callgsubr
          212 520 rmoveto
          368 callgsubr
          43 -4 rlineto
          -455 117 callsubr
          endchar
        </CharString>
        <CharString name="dvBH_N">
          -85 277 85 158 105 -68 77 hstemhm
          65 115 100 112 185 53.5 hintmask 11001000
          512 625 rmoveto
          -98 -107 callgsubr
          98 -97 callgsubr
          hintmask 10111100
          -292 9 rmoveto
          -81 -74 -39 -80 -70 66 -41 71 -17 493 callsubr
          -39 22 -7 14 37 vvcurveto
          30 26 18 25 34 15 -27 -35 vhcurveto
          -138 vlineto
          -63 -19 -22 -29 -64 72 -70 28 -11 hvcurveto
          -2 6 8 -1 9 hhcurveto
          15 10 2 6 9 hvcurveto
          23 14 14 60 4 37 rrcurveto
          64 64 -2 -4 53 hvcurveto
          -130 -73 -131 -73 -33 -24 -23 -21 3 -26 rlinecurve
          7 -57 92 249 callsubr
          228 148 rcurveline
          -9 136 rlineto
          6 -50 -145 1 -39 hhcurveto
          88 vlineto
          145 -94 39 -78 vhcurveto
          endchar
        </CharString>
        <CharString name="dvB_N">
          -223 190 callsubr
          416 callgsubr
          426 -97 callgsubr
          -89 -419 rmoveto
          -10 -22 -23 -6 -21 hhcurveto
          -42 -42 19 60 26 8 22 16 17 hvcurveto
          288 -157 rmoveto
          -36 151 -9 -32 -28 -32 -34 -26 rlinecurve
          -124 128 rlineto
          135 callgsubr
          455 callgsubr
          118 callsubr
          -63 35 -63 65 -33 361 callgsubr
          endchar
        </CharString>
        <CharString name="dvCH_N">
          107 -519 92 236 96 67 92 339 83 34 105 hstemhm
          29 157 callsubr
          -24 105 -87 100 14 97 hintmask 1111100010000000
          439 -191 rmoveto
          -192 239 callgsubr
          465 vlineto
          hintmask 1111100010100000
          76 52 48 83 102 vvcurveto
          396 callgsubr
          hintmask 1111100001000000
          45 189 vlineto
          144 callgsubr
          hintmask 1111101100100000
          -82 callsubr
          rrcurveto
          hintmask 1111110010000000
          -58 callgsubr
          256 callsubr
          497 callsubr
          -62 40 -48 73 -25 hvcurveto
          hintmask 1111101010000000
          147 callgsubr
          40 38 5 10 35 vhcurveto
          -82 -40 41 callgsubr
          108 -247 -100 callgsubr
          endchar
        </CharString>
        <CharString name="dvC_N">
          -169 356 105 59 105 hstem
          111 106 vstem
          433 625 rmoveto
          -483 -107 callgsubr
          483 492 callgsubr
          -164 211 callsubr
          -61 36 -61 62 -34 vhcurveto
          -52 -24 rlineto
          -36 -16 -24 -20 -28 vvcurveto
          -58 90 -76 33 21 28 18 14 29 -17 50 -7 19 vhcurveto
          277 140 -37 150 rlineto
          -74 -24 -76 -49 -76 35 callsubr
          38 -21 26 vhcurveto
          endchar
        </CharString>
        <CharString name="dvDDH_DDHA">
          -81 -295 86 89 62 41 85 44 86 89 62 41 85 45 105 hstemhm
          44 105 107 72 -19 100 -16 71 hintmask 1111111110100000
          328 -172 rmoveto
          400 callgsubr
          407 vmoveto
          400 callgsubr
          hintmask 1111111101000000
          81 -83 rmoveto
          hintmask 1111111110100000
          36 25 19 35 36 vvcurveto
          484 callsubr
          vhcurveto
          299 callgsubr
          82 148 -79 callgsubr
          -567 -107 callgsubr
          319 -47 hlineto
          446 callsubr
          14 13 1 2 13 hvcurveto
          -49 vlineto
          446 callsubr
          hvcurveto
          hintmask 1111111110100000
          122 73 67 69 484 callsubr
          hvcurveto
          299 callgsubr
          endchar
        </CharString>
        <CharString name="dvDD_GA">
          -57 39 309 callgsubr
          75 89 -38 105 104 105 -18 75 hintmask 0001101100000000
          440 520 rmoveto
          142 -97 callgsubr
          -592 7 callsubr
          endchar
        </CharString>
        <CharString name="dvDD_N">
          -52 -456 92 238 96 69 309 callgsubr
          73 89 171 105 -98 105 -25 75 hintmask 1110111101000000
          340 -126 rmoveto
          -192 239 callgsubr
          450 vlineto
          hintmask 1110111100100000
          31 24 19 31 33 342 callgsubr
          hintmask 1111011110000000
          30 callgsubr
          87 148 -79 callgsubr
          -596 -107 callgsubr
          343 -51 -125 hlineto
          294 callsubr
          hintmask 1110111100100000
          54 callgsubr
          rrcurveto
          hintmask 1110111101000000
          -104 75 91 -49 98 hhcurveto
          16 15 1 3 15 hvcurveto
          -73 -31 41 callgsubr
          129 -249 -100 callgsubr
          endchar
        </CharString>
        <CharString name="dvDH_N">
          -134 520 544 callsubr
          65 128 callsubr
          hintmask 10101000
          498 625 rmoveto
          -112 hlineto
          -41 23 -101 callgsubr
          107 -97 callgsubr
          -155 -202 rmoveto
          -35 -6 -35 -10 -32 -15 rrcurveto
          hintmask 01101000
          -38 12 -29 31 124 callsubr
          43 -52 64 -22 vhcurveto
          hintmask 10011000
          -23 -26 -14 -32 -39 vvcurveto
          -59 32 -49 54 -26 vhcurveto
          -28 -13 rlineto
          -73 callgsubr
          284 142 -51 153 rlineto
          -74 -28 -80 -65 -82 12 callgsubr
          hintmask 10101000
          -7 30 -27 37 -21 19 rrcurveto
          endchar
        </CharString>
        <CharString name="dvD_N">
          11 -186 92 448 106 60 105 hstemhm
          49 97 192 298 callgsubr
          hintmask 11111000
          412 31 rmoveto
          6 2 5 2 5 3 rrcurveto
          hintmask 11110100
          28 -48 22 -48 32 -60 -68 callgsubr
          -89 -69 28 77 498 callgsubr
          hvcurveto
          hintmask 11111000
          127 callgsubr
          101 194 -79 callgsubr
          -661 -107 callgsubr
          348 91 callsubr
          -84 59 -89 93 -40 hvcurveto
          -74 -32 rlineto
          -73 callgsubr
          222 -38 -100 callgsubr
          endchar
        </CharString>
        <CharString name="dvGH_N">
          -204 520 105 hstemhm
          34 381 callsubr
          hintmask 10100000
          505 163 rmoveto
          -36 161 rlineto
          -74 -28 -80 -65 -82 118 callgsubr
          hintmask 11000000
          75 callsubr
          279 -97 callgsubr
          -447 87 callgsubr
          hintmask 10100000
          -25 -27 -17 -33 -43 vvcurveto
          -60 32 -48 54 -27 vhcurveto
          -43 -20 rlineto
          -73 callgsubr
          endchar
        </CharString>
        <CharString name="dvG_N">
          -269 391 callsubr
          242 520 rmoveto
          125 -97 callgsubr
          -377 -12 callgsubr
          232 -141 rmoveto
          -40 83 -332 -157 rlineto
          -73 callgsubr
          endchar
        </CharString>
        <CharString name="dvJH_N">
          -41 -25 94 90 103 -78 87 -69 102 57 99 60 105 hstemhm
          34 147 callsubr
          hintmask 1010111100000000
          228 -25 rmoveto
          hintmask 1010111010000000
          157 76 90 72 15 -3 19 348 callsubr
          -24 2 3 -21 hvcurveto
          hintmask 1001111010000000
          17 -20 -23 11 -28 hhcurveto
          hintmask 1100111100000000
          -16 callgsubr
          98 193 -79 callgsubr
          -607 -107 callgsubr
          294 -60 59 callsubr
          hintmask 1001111010000000
          -80 callsubr
          rrcurveto
          hintmask 1010111100000000
          185 callsubr
          486 117 rmoveto
          -8 84 -256 -149 353 callsubr
          rrcurveto
          endchar
        </CharString>
        <CharString name="dvJ_N">
          -51 442 callsubr
          vstem
          549 625 rmoveto
          -598 -107 callgsubr
          598 -97 callgsubr
          -264 -511 rmoveto
          382 callsubr
          277 177 rcurveline
          165 -121 -133 70 -126 26 callgsubr
          -8 24 -13 22 hvcurveto
          60 -11 66 -40 56 -51 rrcurveto
          endchar
        </CharString>
        <CharString name="dvKH_N">
          32 436 callgsubr
          hintmask 11110110
          669 360 rmoveto
          33 -27 -56 49 -93 -39 callsubr
          81 49 40 37 42 hvcurveto
          -17 130 rlineto
          -61 -19 -78 -65 -81 460 callsubr
          44 55 -8 -29 31 hvcurveto
          17 -210 rmoveto
          -24 -60 -87 -23 -101 337 callsubr
          80 11 51 48 161 vvcurveto
          29 -3 48 -9 41 vhcurveto
          417 -97 callgsubr
          -681 93 callgsubr
          -74 86 -135 134 -51 hvcurveto
          hintmask 11111010
          120 callsubr
          484 141 rlineto
          endchar
        </CharString>
        <CharString name="dvK_N">
          -4 479 callsubr
          hintmask 01111000
          314 callgsubr
          178 -97 callgsubr
          -646 143 callsubr
          hintmask 10111000
          47 callsubr
        </CharString>
        <CharString name="dvM_N">
          -246 276 87 157 105 hstem
          128 112 vstem
          485 222 rmoveto
          -11 133 rlineto
          3 -42 -74 5 -50 -17 callgsubr
          158 153 -79 callgsubr
          -403 89 callgsubr
          -163 hlineto
          -48 -16 132 callgsubr
          -6 -7 -1 -13 -14 vvcurveto
          -47 71 -92 47 16 17 4 7 9 vhcurveto
          20 16 19 48 45 vvcurveto
          2 29 23 -3 26 hhcurveto
          28 39 -1 -2 36 hvcurveto
          -262 -148 -33 -24 -23 -19 3 -28 rlinecurve
          6 -57 93 249 callsubr
          rrcurveto
          endchar
        </CharString>
        <CharString name="dvNG_GA">
          61 39 309 callgsubr
          75 89 -38 105 104 105 -18 75 hintmask 0001101100000000
          440 520 rmoveto
          260 -97 callgsubr
          -710 7 callsubr
          133 -17 rmoveto
          -102 callsubr
          endchar
        </CharString>
        <CharString name="dvNG_MA">
          61 -151 83 107 309 callgsubr
          75 89 -38 105 104 105 -96 105 -27 75 hintmask 1101110101000000
          344 -68 rmoveto
          -14 -15 0 -16 -17 callgsubr
          116 vlineto
          -6 21 22 -2 22 hhcurveto
          17 16 1 3 15 hvcurveto
          hintmask 1110111010000000
          96 477 rmoveto
          260 -97 callgsubr
          -710 -107 callgsubr
          345 -51 -125 hlineto
          294 callsubr
          hintmask 1101110100100000
          54 callgsubr
          29 -40 32 -32 33 -25 rrcurveto
          -162 vlineto
          -33 -21 -12 -15 -9 hvcurveto
          -6 -7 -2 -10 -14 vvcurveto
          -44 62 -92 37 16 17 0 11 9 vhcurveto
          20 15 14 44 2 38 rrcurveto
          hintmask 1101110101000000
          2 29 28 0 26 11 9 0 9 hhcurveto
          -107 239 callgsubr
          391 vlineto
          hintmask 1101110100100000
          30 24 18 31 32 342 callgsubr
          hintmask 1110111010000000
          30 callgsubr
          133 -17 rmoveto
          -102 callsubr
          endchar
        </CharString>
        <CharString name="dvNY_CA">
          573 83 100 -92 101 -20 82 91 105 -97 84 83 105 hstemhm
          411 123 85 106 230 120 hintmask 1001010010000000
          1212 -91 callgsubr
          -1222 -107 callgsubr
          965 hlineto
          hintmask 0101010110000000
          -268 vlineto
          -38 -35 -52 -22 -51 hhcurveto
          -52 -40 23 45 61 76 24 57 hvcurveto
          409 callgsubr
          hintmask 0010111110000000
          -9 -15 -6 -22 -2 -24 -20 -13 -25 -12 -40 -5 rrcurveto
          108 -1 -99 75 -115 hhcurveto
          -60 -69 -20 -21 -26 hvcurveto
          12 -39 36 -48 13 -15 rrcurveto
          31 35 52 28 37 hhcurveto
          45 17 -39 -40 hvcurveto
          hintmask 1001011010000000
          -76 -61 -15 -33 -110 -65 84 126 -78 vhcurveto
          -12 -4 -40 -28 -5 -10 rrcurveto
          -87 35 125 -181 173 hhcurveto
          74 67 34 56 32 hvcurveto
          hintmask 0011011010000000
          -1 6 7 0 8 hhcurveto
          32 43 7 20 28 hvcurveto
          hintmask 0101010010000000
          -60 31 67 -48 91 hhcurveto
          49 41 14 25 39 hvcurveto
          -104 -105 callgsubr
        </CharString>
        <CharString name="dvN_N">
          -209 329 121 70 105 hstem
          -49 523 vstem
          392 625 rmoveto
          -441 -107 callgsubr
          441 -97 callgsubr
          -298 -175 rmoveto
          -30 -22 -11 -12 -11 hvcurveto
          -14 -16 -6 -29 -29 vvcurveto
          -46 14 -48 15 -15 vhcurveto
          16 -12 32 -3 9 8 22 24 16 50 8 18 43 -2 81 -19 77 -24 -247 -117 rcurveline
          -73 callgsubr
          289 144 rlineto
          79 vlineto
          47 -73 -200 81 -107 hhcurveto
          endchar
        </CharString>
        <CharString name="dvPH_N">
          62 335 169 callsubr
          vstem
          387 520 rmoveto
          -194 vlineto
          -59 callsubr
          71 vlineto
          309 hmoveto
          193 -97 callgsubr
          -710 55 callsubr
          -61 hlineto
          -117 31 -108 80 -44 vhcurveto
          -44 -25 -34 -22 -23 -19 2 -28 rlinecurve
          4 -57 94 -70 33 2 21 2 28 20 -2 14 -1 15 -6 19 -6 18 -6 18 -7 17 -4 9 57 35 rcurveline
          58 36 38 23 rlineto
          -171 461 callgsubr
          57 39 59 60 58 hhcurveto
          16 14 -5 -10 9 hvcurveto
          57 51 rlineto
          33 -31 -45 19 -50 hhcurveto
          -53 372 callgsubr
          hvcurveto
          endchar
        </CharString>
        <CharString name="dvP_N">
          -241 360 callgsubr
          75 125 vstem
          426 400 rmoveto
          388 callsubr
          86 225 -79 callgsubr
          338 callgsubr
          85 -76 hlineto
          -106 32 -101 81 -42 vhcurveto
          -53 -29 138 callsubr
          163 101 13 8 22 16 rrcurveto
          endchar
        </CharString>
        <CharString name="dvSHA_MatraVocalicR">
          67 -221 78 381 96 491 callsubr
          103 90 -8 89 8 120 hintmask 10011101
          347 callsubr
          hintmask 11100101
          342 -49 rmoveto
          138 -97 callgsubr
          -296 -107 callgsubr
          38 -186 -7 hlineto
          -48 -54 7 17 -41 hvcurveto
          36 37 25 43 54 vvcurveto
          hintmask 11011101
          93 callsubr
          33 -21 52 -25 59 -14 21 -5 21 -4 22 -2 rrcurveto
          -200 vlineto
          hintmask 10100011
          -52 -22 -45 -42 -65 vvcurveto
          -83 73 -47 81 71 65 36 36 27 vhcurveto
          -11 27 -22 27 -20 15 rrcurveto
          -30 -24 -31 -33 -54 hhcurveto
          -41 -25 19 33 hvcurveto
          hintmask 10100001
          64 75 13 53 vhcurveto
          endchar
        </CharString>
        <CharString name="dvSH_VA.aSimp">
          446 78 90 -7 143 69 100 42 70 callgsubr
          57 175 callgsubr
          hintmask 1010111110000000
          828 32 callgsubr
          -1094 -107 callgsubr
          92 -58 callsubr
          hintmask 0111011110000000
          -90 callgsubr
          hintmask 0110111110000000
          -7 callsubr
          423 126 callsubr
          hintmask 1010111110000000
          -54 callgsubr
        </CharString>
        <CharString name="dvS_N">
          0 337 96 87 105 hstemhm
          -49 743 -510 100 hintmask 11100000
          694 239 rmoveto
          -42 82 -22 -10 rlineto
          76 -77 -72 46 -79 hhcurveto
          hintmask 11010000
          144 callsubr
          375 -97 callgsubr
          -649 -107 callgsubr
          156 21 callsubr
          39 13 30 18 27 17 rrcurveto
          32 51 39 31 65 hhcurveto
          55 49 -22 -37 49 hvcurveto
          -142 -67 125 callsubr
          endchar
        </CharString>
        <CharString name="dvTH_N">
          -130 520 105 -63 73 hstemhm
          79 403 callgsubr
          hintmask 10110000
          470 625 rmoveto
          -64 -107 callgsubr
          64 -97 callgsubr
          hintmask 01110000
          -253 10 rmoveto
          -82 -56 -47 -63 -30 13 -65 100 -38 hvcurveto
          128 callgsubr
          -11 callgsubr
          6 -84 56 -91 87 -43 -58 -27 rcurveline
          -36 -17 -24 -19 -28 vvcurveto
          -58 90 -76 33 21 28 18 14 29 -17 50 -7 19 vhcurveto
          284 142 -33 168 rlineto
          439 callsubr
          45 -37 hvcurveto
          119 30 71 82 97 vvcurveto
          420 callsubr
          endchar
        </CharString>
        <CharString name="dvTTH_N">
          -34 -386 92 239 96 71 87 180 89 52 105 hstemhm
          37 106 160 104 -101 105 7 84 hintmask 1111110010000000
          253 199 424 callgsubr
          hintmask 1111110100000000
          53 -254 rmoveto
          -192 239 callgsubr
          438 vlineto
          hintmask 1111110010000000
          54 30 37 50 65 vvcurveto
          hintmask 1111111000000000
          64 -35 52 -60 31 vhcurveto
          83 198 -79 callgsubr
          -615 -107 callgsubr
          313 -54 hlineto
          390 callsubr
          -69 -96 -116 104 -75 133 hvcurveto
          hintmask 1111110100000000
          11 10 1 1 11 hvcurveto
          -73 -31 41 callgsubr
          128 -250 -100 callgsubr
          endchar
        </CharString>
        <CharString name="dvTTH_TTHA">
          -43 -295 87 190 89 41 87 190 89 42 105 hstemhm
          42 106 160 104 11 84 vstemhm
          258 199 rmoveto
          438 callgsubr
          -407 vmoveto
          438 callgsubr
          hintmask 11111110
          154 728 rmoveto
          184 -97 callgsubr
          -606 -107 callgsubr
          318 -44 hlineto
          390 callsubr
          -73 -102 -116 104 -75 133 10 9 0 1 10 hvcurveto
          -44 vlineto
          390 callsubr
          -73 -102 404 callgsubr
          68 -35 55 -60 32 vhcurveto
          105 vlineto
          hintmask 11111111
          56 30 39 50 67 vvcurveto
          hintmask 11111110
          68 -35 55 -60 32 vhcurveto
          endchar
        </CharString>
        <CharString name="dvTT_GA">
          -57 102 87 190 89 52 105 hstemhm
          44 106 -33 105 87 105 -88 105 hintmask 11110100
          414 520 rmoveto
          168 -97 callgsubr
          -592 -107 callgsubr
          319 -53 hlineto
          261 callgsubr
          hvcurveto
          hintmask 11101010
          -58 27 -52 46 -35 vhcurveto
          -132 109 callsubr
          158 vlineto
          -3 18 18 -2 20 hhcurveto
          16 16 1 3 16 hvcurveto
          -333 239 callgsubr
          415 vlineto
          24 13 22 17 16 20 191 callgsubr
          -33 -66 -30 -62 hhcurveto
          hintmask 11110100
          -82 -35 31 60 439 callgsubr
        </CharString>
        <CharString name="dvTT_N">
          -51 -400 92 235 96 79 87 190 89 52 105 hstemhm
          32 106 159 105 -96 105 hintmask 11111101
          306 -73 rmoveto
          -192 239 callgsubr
          448 vlineto
          28 15 24 18 18 22 191 callgsubr
          -33 -66 -30 -62 hhcurveto
          -82 -35 31 60 66 65 33 92 hvcurveto
          hintmask 11111110
          18 21 -1 12 hhcurveto
          23 33 40 22 hvcurveto
          80 185 -79 callgsubr
          -597 -107 callgsubr
          307 -53 hlineto
          261 callgsubr
          -110 97 -86 137 hvcurveto
          hintmask 11111101
          13 14 1 2 13 hvcurveto
          -82 -31 41 callgsubr
          119 -246 -100 callgsubr
          endchar
        </CharString>
        <CharString name="dvT_KH_NA">
          530 15 -21 93 81 101 106 -21 88 78 105 hstemhm
          23 115 202 146 -21 463 callsubr
          hintmask 1101110111000000
          912 110 callsubr
          275 180 callgsubr
          -1191 -107 callgsubr
          432 hlineto
          hintmask 1110110111000000
          21 -45 16 -64 -48 vvcurveto
          -9 -1 -9 -2 -8 vhcurveto
          3 -22 -27 2 -7 hhcurveto
          -8 hlineto
          14 -30 -53 19 -72 -69 callgsubr
          46 41 28 104 10 10 0 -2 12 vhcurveto
          -1 -4 0 -4 -5 vvcurveto
          -74 86 -135 134 -51 vhcurveto
          hintmask 1110111011000000
          120 callsubr
          426 124 rlineto
          -66 302 callgsubr
        </CharString>
        <CharString name="dvT_N">
          -214 334 115 71 105 hstem
          29 115 290 80.5 vstem
          386 625 rmoveto
          338 callgsubr
          435 -97 callgsubr
          -127 -356 rmoveto
          -73 callgsubr
          165 85 5 163 rlineto
          -164 299 callsubr
          25 41 -1 -1 39 vhcurveto
          endchar
        </CharString>
        <CharString name="dvT_R_KA">
          183 345 102 -94 87 80 105 hstemhm
          337 120 206 83 hintmask 10111000
          457 520 rmoveto
          354 -97 callgsubr
          -818 -107 callgsubr
          344 -185 hlineto
          66 -69 -66 46 -78 hhcurveto
          -54 -38 -22 -20 -22 hvcurveto
          7 -20 31 -60 14 -15 rrcurveto
          18 28 27 17 44 88 callsubr
          222 158 rlineto
          429 callsubr
          258 vlineto
          hintmask 01111000
          56 39 58 59 57 hhcurveto
          31 21 -17 -34 -59 -62 -58 -45 -29 hvcurveto
          14 -28 29 -39 31 -19 rrcurveto
          67 38 49 64 84 vvcurveto
          110 -69 74 -103 -28 -42 -7 -44 -47 vhcurveto
          endchar
        </CharString>
        <CharString name="dvT_S_NA">
          536 328 101 -92 96 87 105 hstemhm
          27 115 355 100 321 120 hintmask 01101100
          918 334 rmoveto
          62 -68 -65 37 -70 hhcurveto
          144 callsubr
          341 hlineto
          259 -88 callsubr
          -1187 -107 callgsubr
          469 hlineto
          hintmask 10111100
          26 -46 12 -44 -30 vvcurveto
          190 callgsubr
          -19 5 -24 hhcurveto
          -20 -19 -4 -8 -15 hvcurveto
          39 -43 -60 23 -62 hhcurveto
          -98 -98 -57 -93 -100 89 -133 438 callsubr
          44 35 66 60 26 -19 -23 21 vhcurveto
          6 -31 16 -32 11 -20 36 -63 85 -112 65 -63 19 6 39 29 11 21 201 callgsubr
          rrcurveto
          hintmask 01101100
          47 16 35 23 31 20 rrcurveto
          28 43 38 24 57 hhcurveto
          55 49 -22 -37 49 hvcurveto
          -142 -67 125 callsubr
          106 51 rlineto
          -171 -105 callgsubr
        </CharString>
        <CharString name="dvV_N">
          -223 190 callsubr
          vstem
          377 625 rmoveto
          -426 -107 callgsubr
          426 -97 callgsubr
          -142 -152 rmoveto
          118 callsubr
          -63 35 -63 65 -33 361 callgsubr
          275 138 -36 151 rlineto
          -66 -19 -100 -72 -73 hhcurveto
          -42 -42 19 60 65 51 39 86 455 callgsubr
          endchar
        </CharString>
        <CharString name="dvY_N">
          -251 360 callgsubr
          155 114 vstem
          501 189 rmoveto
          -57 148 rlineto
          -45 -16 -56 -77 -100 hhcurveto
          -65 -47 22 36 -28 hvcurveto
          104 24 33 58 69 vvcurveto
          36 -13 33 -21 27 vhcurveto
          165 -97 callgsubr
          -410 168 callsubr
          -43 -9 -84 -19 vhcurveto
          9 -76 43 -100 95 -43 -39 -17 rcurveline
          -73 callgsubr
          endchar
        </CharString>
        <CharString name="e">
          154 callsubr
          167 314 rmoveto
          -76 callsubr
        </CharString>
        <CharString name="eacute">
          154 callsubr
          444 662 -92 callsubr
          -70 -238 rmoveto
          -76 callsubr
        </CharString>
        <CharString name="ebreve">
          -93 -15 89 171 69 126 80 39 85 475 callsubr
          534 callsubr
          vstem
          407 726 rmoveto
          -28 -12 -27 -54 -89 hhcurveto
          -39 callgsubr
          -276 -392 rmoveto
          -76 callsubr
        </CharString>
        <CharString name="ecaron">
          154 callsubr
          450 687 -71 callsubr
          -148 -247 rmoveto
          -76 callsubr
        </CharString>
        <CharString name="ecircumflex">
          154 callsubr
          277 629 -87 callsubr
          30 -229 rmoveto
          -76 callsubr
        </CharString>
        <CharString name="edieresis">
          -93 -15 89 171 69 126 80 54 140 hstemhm
          35 127 -56 325 callsubr
          -89 117 hintmask 11110110
          367 574 -28 callsubr
          -10 -260 rmoveto
          hintmask 11110101
          103 callsubr
          hintmask 11111001
          -187 -69 rmoveto
          304 57 hlineto
          123 2 -58 95 -133 hhcurveto
          -147 -95 -99 -191 -158 83 -87 144 119 75 60 40 14 -9 22 -11 8 hvcurveto
          -18 -23 -45 -37 -73 hhcurveto
          -104 -29 58 102 hvcurveto
          endchar
        </CharString>
        <CharString name="edotaccent">
          -93 -15 89 171 69 126 80 46 148 hstemhm
          35 127 47 148 -8 117 hintmask 11111100
          283 566 -37 callgsubr
          -116 -252 rmoveto
          hintmask 11101010
          -76 callsubr
        </CharString>
        <CharString name="egrave">
          154 callsubr
          207 730 28 callgsubr
          -207 -279 rmoveto
          -76 callsubr
        </CharString>
        <CharString name="eight">
          -112 -15 70 505 70 hstemhm
          30 118 -87 112 146 108 -89 110 hintmask 11100100
          244 55 rmoveto
          -66 -30 40 58 44 17 43 34 33 hvcurveto
          17 -9 16 -8 14 -8 rrcurveto
          64 -35 28 -34 -43 vvcurveto
          -45 -32 -36 -62 vhcurveto
          hintmask 11011000
          29 318 rmoveto
          -79 45 -21 28 40 vvcurveto
          55 40 19 34 35 37 -20 -63 -46 -20 -35 -24 -24 vhcurveto
          59 -33 rmoveto
          51 34 42 51 67 vvcurveto
          82 -62 57 -107 -135 -62 -90 -87 -65 34 -44 42 -32 vhcurveto
          hintmask 11100100
          -62 -38 -45 -58 -71 vvcurveto
          -100 91 -60 108 146 73 108 89 vhcurveto
          hintmask 11011000
          78 -56 45 -58 34 vhcurveto
          endchar
        </CharString>
        <CharString name="ellipsis">
          410 -15 158 hstem
          85 158 167 158 167 158 cntrmask 01110000
          164 -15 155 callgsubr
          325 hmoveto
          51 callgsubr
          325 hmoveto
          411 callgsubr
        </CharString>
        <CharString name="emacron">
          -93 -15 89 171 69 126 80 58 70 475 callsubr
          534 callsubr
          vstem
          424 648 465 callsubr
          -257 -264 rmoveto
          -76 callsubr
        </CharString>
        <CharString name="emdash">
          255 235 80 hstem
          40 765 vstem
          40 315 rmoveto
          -80 765 80 vlineto
          endchar
        </CharString>
        <CharString name="endash">
          -58 234 80 hstem
          40 452 vstem
          40 314 rmoveto
          -80 452 80 vlineto
          endchar
        </CharString>
        <CharString name="eng">
          43 -233 79 154 68 352 100 398 callgsubr
          36 74 98 122 vstem
          375 520 rmoveto
          -70 -44 -33 -34 -39 hvcurveto
          -44 callsubr
          -337 117 callsubr
          235 432 callsubr
          vhcurveto
          endchar
        </CharString>
        <CharString name="eogonek">
          -93 -162 53 94 89 171 69 126 80 hstemhm
          35 127 122 77 -12 117 hintmask 11111010
          167 314 rmoveto
          103 callsubr
          hintmask 11111100
          73 -282 rmoveto
          22 18 12 19 16 vvcurveto
          14 -9 22 -11 8 vhcurveto
          -18 -23 -45 -37 -73 hhcurveto
          -104 -29 58 102 hvcurveto
          11 vlineto
          hintmask 11111010
          304 57 hlineto
          123 2 -58 95 -133 hhcurveto
          -147 -95 -99 -191 -158 83 -87 144 hvcurveto
          hintmask 11111100
          16 16 1 2 15 hvcurveto
          -16 -20 -9 -24 -27 -22 callsubr
          43 21 27 41 20 hvcurveto
          endchar
        </CharString>
        <CharString name="equal">
          510 callsubr
          50 387 507 callgsubr
          -408 -158 507 callgsubr
          endchar
        </CharString>
        <CharString name="eth">
          -33 -15 87 327 81 475 callsubr
          233 127 vstem
          263 72 rmoveto
          -63 -38 53 104 74 19 96 97 47 40 -22 -25 27 hvcurveto
          2 -17 1 -17 -19 vvcurveto
          -137 -49 -90 -83 vhcurveto
          155 588 rmoveto
          -32 51 -82 -53 -50 26 -53 15 -46 7 rlinecurve
          -34 -61 17 -3 44 -8 47 -25 rlinecurve
          -73 -47 32 -57 98 66 29 -25 27 -33 20 -44 rlinecurve
          7 -22 -24 4 -31 hhcurveto
          -173 -79 -127 -139 2 hvcurveto
          -143 2 88 -86 136 hhcurveto
          163 98 124 188 160 -71 103 -88 63 hvcurveto
          endchar
        </CharString>
        <CharString name="exclam">
          -352 -15 158 556 11 hstem
          40 158 vstem
          78 219 rmoveto
          27 -7 31 0 24 7 31 487 rcurveline
          -37 7 -60 -1 -35 -13 rrcurveto
          60 -714 rmoveto
          411 callgsubr
        </CharString>
        <CharString name="exclamdown">
          -352 -11 11 14 -21 28 -21 556 158 hstemhm
          40 158 hintmask 10011000
          119 714 rmoveto
          -44 -35 -35 -44 -44 35 -35 44 44 35 35 44 44 -35 35 -44 hvcurveto
          hintmask 00111000
          -60 -714 rmoveto
          hintmask 01011000
          35 -13 60 -1 37 7 -31 487 rcurveline
          -24 7 -31 0 -27 -7 rrcurveto
          endchar
        </CharString>
        <CharString name="f">
          -196 376 callsubr
          hstem
          103.5 121.5 104 79 vstem
          104 505 rmoveto
          -23 hlineto
          496 callgsubr
          72 hlineto
          -1 -366 96 callgsubr
          260 callsubr
          -116 -2 -76 -86 -110 vvcurveto
          endchar
        </CharString>
        <CharString name="ff">
          124 376 callsubr
          hstemhm
          103 122 104 79 15 122 104 79 hintmask 11110100
          423 505 rmoveto
          -198 31 529 callgsubr
          vhcurveto
          hintmask 11111100
          56 callgsubr
          260 callsubr
          377 callgsubr
          endchar
        </CharString>
        <CharString name="ffi">
          363 0 68 367 70 60 148 -53 70 hstemhm
          104 122 104 79 13 122 88 79 9 508 callgsubr
          hintmask 1110101010000000
          794 565 -37 callgsubr
          -196 -130 rmoveto
          51 -1 57 13 -1 hvcurveto
          -103 31 hlineto
          hintmask 1101101101000000
          405 callsubr
          -101 -2 -94 -74 2 -132 rrcurveto
          -17 -196 31 vlineto
          510 callgsubr
          vhcurveto
          hintmask 1101111001000000
          27 22 -17 -47 hvcurveto
          260 callsubr
          34 callsubr
          hlineto
          hintmask 1101101001000000
          196 86 callsubr
          -102 6 rlineto
          364 vlineto
          319 -364 -67 callsubr
          endchar
        </CharString>
        <CharString name="ffl">
          364 376 callsubr
          hstemhm
          103 122 104 79 15 122 197 122 hintmask 11110110
          864 71 rmoveto
          644 vlineto
          -147 -16 -18 23 -36 9 -47 -1 rlinecurve
          377 callgsubr
          -27 -198 31 vlineto
          510 callgsubr
          vhcurveto
          hintmask 11111110
          56 callgsubr
          31 27 10 23 13 hvcurveto
          22 -2 363 callsubr
        </CharString>
        <CharString name="fi">
          44 0 68 367 70 60 148 -53 70 hstemhm
          103 123 87 79 9 508 callgsubr
          hintmask 11011101
          296 730 rmoveto
          -101 -2 -94 -74 2 -132 rrcurveto
          -17 -21 vlineto
          -42 -8 -38 -32 hvcurveto
          71 97 callgsubr
          364 53 vlineto
          51 -1 57 13 -1 hvcurveto
          -103 31 hlineto
          405 callsubr
          hintmask 11011001
          248 -210 rmoveto
          -66 callgsubr
          -71 6 rlineto
          hintmask 11101010
          -69 642 rmoveto
          -41 -33 -33 -41 -42 33 -32 41 42 32 32 42 41 -32 33 -42 hvcurveto
          endchar
        </CharString>
</ttFont>
